<?xml version="1.0" encoding="UTF-8" standalone="no"?>
<!DOCTYPE svg PUBLIC "-//W3C//DTD SVG 1.1//EN"
 "http://www.w3.org/Graphics/SVG/1.1/DTD/svg11.dtd">
<!-- Generated by graphviz version 2.43.0 (0)
 -->
<!-- Title: time/config.h Pages: 1 -->
<svg width="454pt" height="192pt"
 viewBox="0.00 0.00 454.00 192.00" xmlns="http://www.w3.org/2000/svg" xmlns:xlink="http://www.w3.org/1999/xlink">

<svg id="main" version="1.1" xmlns="http://www.w3.org/2000/svg" xmlns:xlink="http://www.w3.org/1999/xlink" xml:space="preserve" onload="init(evt)">
<style type="text/css"><![CDATA[
.node, .edge {opacity: 0.7;}
.node.selected, .edge.selected {opacity: 1;}
.edge:hover path { stroke: red; }
.edge:hover polygon { stroke: red; fill: red; }
]]></style>
<script type="application/ecmascript" xlink:href="svg.min.js"/>
<svg id="graph" class="graph">
<g id="graph0" class="graph" transform="scale(1 1) rotate(0) translate(4 188)">
<title>time/config.h</title>
<!-- Node1 -->
<g id="Node000001" class="node">
<title>Node1</title>
<g id="a_Node000001"><a xlink:title=" ">
<polygon fill="#999999" stroke="#666666" points="216.5,-184 136.5,-184 136.5,-165 216.5,-165 216.5,-184"/>
<text text-anchor="middle" x="176.5" y="-172" font-family="Helvetica,sans-Serif" font-size="10.00">time/config.h</text>
</a>
</g>
</g>
<!-- Node2 -->
<g id="Node000002" class="node">
<title>Node2</title>
<g id="a_Node000002"><a xlink:href="systick_8c.html" target="_top" xlink:title=" ">
<polygon fill="white" stroke="#666666" points="170,-129 85,-129 85,-110 170,-110 170,-129"/>
<text text-anchor="middle" x="127.5" y="-117" font-family="Helvetica,sans-Serif" font-size="10.00">time/systick.c</text>
</a>
</g>
</g>
<!-- Node1&#45;&gt;Node2 -->
<g id="edge1_Node000001_Node000002" class="edge">
<title>Node1&#45;&gt;Node2</title>
<g id="a_edge1_Node000001_Node000002"><a xlink:title=" ">
<path fill="none" stroke="#63b8ff" d="M161.47,-157.24C152.88,-147.95 142.46,-136.68 135.44,-129.09"/>
<polygon fill="#63b8ff" stroke="#63b8ff" points="159.05,-159.78 168.41,-164.75 164.19,-155.03 159.05,-159.78"/>
</a>
</g>
</g>
<!-- Node3 -->
<g id="Node000003" class="node">
<title>Node3</title>
<g id="a_Node000003"><a xlink:href="time_8h.html" target="_top" xlink:title="Time related functions for embebedded systems.">
<polygon fill="white" stroke="#666666" points="262.5,-129 188.5,-129 188.5,-110 262.5,-110 262.5,-129"/>
<text text-anchor="middle" x="225.5" y="-117" font-family="Helvetica,sans-Serif" font-size="10.00">time/time.h</text>
</a>
</g>
</g>
<!-- Node1&#45;&gt;Node3 -->
<g id="edge2_Node000001_Node000003" class="edge">
<title>Node1&#45;&gt;Node3</title>
<g id="a_edge2_Node000001_Node000003"><a xlink:title=" ">
<path fill="none" stroke="#63b8ff" d="M191.53,-157.24C200.12,-147.95 210.54,-136.68 217.56,-129.09"/>
<polygon fill="#63b8ff" stroke="#63b8ff" points="188.81,-155.03 184.59,-164.75 193.95,-159.78 188.81,-155.03"/>
</a>
</g>
</g>
<!-- Node4 -->
<g id="Node000004" class="node">
<title>Node4</title>
<g id="a_Node000004"><a xlink:href="cron_8h.html" target="_top" xlink:title="Cron&#45;like scheduling framework for embebedded systems.">
<polygon fill="white" stroke="#666666" points="132.5,-74 60.5,-74 60.5,-55 132.5,-55 132.5,-74"/>
<text text-anchor="middle" x="96.5" y="-62" font-family="Helvetica,sans-Serif" font-size="10.00">time/cron.h</text>
</a>
</g>
</g>
<!-- Node3&#45;&gt;Node4 -->
<g id="edge3_Node000003_Node000004" class="edge">
<title>Node3&#45;&gt;Node4</title>
<g id="a_edge3_Node000003_Node000004"><a xlink:title=" ">
<path fill="none" stroke="#63b8ff" d="M195.46,-106.16C171.58,-96.35 138.78,-82.87 117.6,-74.17"/>
<polygon fill="#63b8ff" stroke="#63b8ff" points="194.19,-109.42 204.77,-109.98 196.85,-102.95 194.19,-109.42"/>
</a>
</g>
</g>
<!-- Node6 -->
<g id="Node000006" class="node">
<title>Node6</title>
<g id="a_Node000006"><a xlink:href="time_8c.html" target="_top" xlink:title="Time related function implementations.">
<polygon fill="white" stroke="#666666" points="162,-19 89,-19 89,0 162,0 162,-19"/>
<text text-anchor="middle" x="125.5" y="-7" font-family="Helvetica,sans-Serif" font-size="10.00">time/time.c</text>
</a>
</g>
</g>
<!-- Node3&#45;&gt;Node6 -->
<g id="edge12_Node000003_Node000006" class="edge">
<title>Node3&#45;&gt;Node6</title>
<g id="a_edge12_Node000003_Node000006"><a xlink:title=" ">
<path fill="none" stroke="#63b8ff" d="M208.62,-102.92C199.74,-94.54 188.81,-83.93 179.5,-74 161.88,-55.21 142.66,-31.85 132.58,-19.36"/>
<polygon fill="#63b8ff" stroke="#63b8ff" points="206.38,-105.62 216.08,-109.89 211.16,-100.51 206.38,-105.62"/>
</a>
</g>
</g>
<!-- Node7 -->
<g id="Node000007" class="node">
<title>Node7</title>
<g id="a_Node000007"><a xlink:href="sync_8c.html" target="_top" xlink:title="Time synchonization function implementation.">
<polygon fill="white" stroke="#666666" points="362,-19 289,-19 289,0 362,0 362,-19"/>
<text text-anchor="middle" x="325.5" y="-7" font-family="Helvetica,sans-Serif" font-size="10.00">time/sync.c</text>
</a>
</g>
</g>
<!-- Node3&#45;&gt;Node7 -->
<g id="edge6_Node000003_Node000007" class="edge">
<title>Node3&#45;&gt;Node7</title>
<g id="a_edge6_Node000003_Node000007"><a xlink:title=" ">
<path fill="none" stroke="#63b8ff" d="M242.38,-102.92C251.26,-94.54 262.19,-83.93 271.5,-74 289.12,-55.21 308.34,-31.85 318.42,-19.36"/>
<polygon fill="#63b8ff" stroke="#63b8ff" points="239.84,-100.51 234.92,-109.89 244.62,-105.62 239.84,-100.51"/>
</a>
</g>
</g>
<!-- Node8 -->
<g id="Node000008" class="node">
<title>Node8</title>
<g id="a_Node000008"><a xlink:href="sync_8h.html" target="_top" xlink:title="Time synchonization functions for embebedded systems.">
<polygon fill="white" stroke="#666666" points="262.5,-74 188.5,-74 188.5,-55 262.5,-55 262.5,-74"/>
<text text-anchor="middle" x="225.5" y="-62" font-family="Helvetica,sans-Serif" font-size="10.00">time/sync.h</text>
</a>
</g>
</g>
<!-- Node3&#45;&gt;Node8 -->
<g id="edge7_Node000003_Node000008" class="edge">
<title>Node3&#45;&gt;Node8</title>
<g id="a_edge7_Node000003_Node000008"><a xlink:title=" ">
<path fill="none" stroke="#63b8ff" d="M225.5,-99.66C225.5,-90.93 225.5,-80.99 225.5,-74.09"/>
<polygon fill="#63b8ff" stroke="#63b8ff" points="222,-99.75 225.5,-109.75 229,-99.75 222,-99.75"/>
</a>
</g>
</g>
<!-- Node10 -->
<g id="Node000010" class="node">
<title>Node10</title>
<g id="a_Node000010"><a xlink:href="systick__handler_8h.html" target="_top" xlink:title="Interrupt handler for the system tick for static inclusion in the application.">
<polygon fill="white" stroke="#666666" points="446,-74 319,-74 319,-55 446,-55 446,-74"/>
<text text-anchor="middle" x="382.5" y="-62" font-family="Helvetica,sans-Serif" font-size="10.00">time/systick_handler.h</text>
</a>
</g>
</g>
<!-- Node3&#45;&gt;Node10 -->
<g id="edge11_Node000003_Node000010" class="edge">
<title>Node3&#45;&gt;Node10</title>
<g id="a_edge11_Node000003_Node000010"><a xlink:title=" ">
<path fill="none" stroke="#63b8ff" d="M260.55,-106.67C289.82,-96.79 330.87,-82.93 357.08,-74.08"/>
<polygon fill="#63b8ff" stroke="#63b8ff" points="259.08,-103.47 250.72,-109.98 261.32,-110.1 259.08,-103.47"/>
</a>
</g>
</g>
<!-- Node5 -->
<g id="Node000005" class="node">
<title>Node5</title>
<g id="a_Node000005"><a xlink:href="cron_8c.html" target="_top" xlink:title="Cron&#45;like scheduling framework implementations.">
<polygon fill="white" stroke="#666666" points="71,-19 0,-19 0,0 71,0 71,-19"/>
<text text-anchor="middle" x="35.5" y="-7" font-family="Helvetica,sans-Serif" font-size="10.00">time/cron.c</text>
</a>
</g>
</g>
<!-- Node4&#45;&gt;Node5 -->
<g id="edge4_Node000004_Node000005" class="edge">
<title>Node4&#45;&gt;Node5</title>
<g id="a_edge4_Node000004_Node000005"><a xlink:title=" ">
<path fill="none" stroke="#63b8ff" d="M79.03,-48.32C68.16,-38.87 54.56,-27.06 45.48,-19.17"/>
<polygon fill="#63b8ff" stroke="#63b8ff" points="76.85,-51.07 86.7,-54.98 81.45,-45.78 76.85,-51.07"/>
</a>
</g>
</g>
<!-- Node4&#45;&gt;Node6 -->
<g id="edge5_Node000004_Node000006" class="edge">
<title>Node4&#45;&gt;Node6</title>
<g id="a_edge5_Node000004_Node000006"><a xlink:title=" ">
<path fill="none" stroke="#63b8ff" d="M106.18,-45.82C111.1,-36.82 116.86,-26.29 120.8,-19.09"/>
<polygon fill="#63b8ff" stroke="#63b8ff" points="103.02,-44.3 101.29,-54.75 109.16,-47.66 103.02,-44.3"/>
</a>
</g>
</g>
<!-- Node8&#45;&gt;Node6 -->
<g id="edge10_Node000008_Node000006" class="edge">
<title>Node8&#45;&gt;Node6</title>
<g id="a_edge10_Node000008_Node000006"><a xlink:title=" ">
<path fill="none" stroke="#63b8ff" d="M200.47,-50.23C182.13,-40.51 157.76,-27.6 141.86,-19.17"/>
<polygon fill="#63b8ff" stroke="#63b8ff" points="198.96,-53.39 209.43,-54.98 202.24,-47.21 198.96,-53.39"/>
</a>
</g>
</g>
<!-- Node8&#45;&gt;Node7 -->
<g id="edge8_Node000008_Node000007" class="edge">
<title>Node8&#45;&gt;Node7</title>
<g id="a_edge8_Node000008_Node000007"><a xlink:title=" ">
<path fill="none" stroke="#63b8ff" d="M250.53,-50.23C268.87,-40.51 293.24,-27.6 309.14,-19.17"/>
<polygon fill="#63b8ff" stroke="#63b8ff" points="248.76,-47.21 241.57,-54.98 252.04,-53.39 248.76,-47.21"/>
</a>
</g>
</g>
<!-- Node9 -->
<g id="Node000009" class="node">
<title>Node9</title>
<g id="a_Node000009"><a xlink:href="sync__rtc_8c.html" target="_top" xlink:title=" ">
<polygon fill="white" stroke="#666666" points="271,-19 180,-19 180,0 271,0 271,-19"/>
<text text-anchor="middle" x="225.5" y="-7" font-family="Helvetica,sans-Serif" font-size="10.00">time/sync_rtc.c</text>
</a>
</g>
</g>
<!-- Node8&#45;&gt;Node9 -->
<g id="edge9_Node000008_Node000009" class="edge">
<title>Node8&#45;&gt;Node9</title>
<g id="a_edge9_Node000008_Node000009"><a xlink:title=" ">
<path fill="none" stroke="#63b8ff" d="M225.5,-44.66C225.5,-35.93 225.5,-25.99 225.5,-19.09"/>
<polygon fill="#63b8ff" stroke="#63b8ff" points="222,-44.75 225.5,-54.75 229,-44.75 222,-44.75"/>
</a>
</g>
</g>
</g>
</svg>
</svg>

<style type='text/css'>
<![CDATA[
[data-mouse-over-selected='false'] { opacity: 0.7; }
[data-mouse-over-selected='true']  { opacity: 1.0; }
]]>
</style>
<script type="application/ecmascript"><![CDATA[
document.addEventListener('DOMContentLoaded', (event) => {
  highlightEdges();
  highlightAdjacentNodes();
});
]]></script>
</svg>
