<?xml version="1.0" encoding="UTF-8" standalone="no"?>
<!DOCTYPE svg PUBLIC "-//W3C//DTD SVG 1.1//EN"
 "http://www.w3.org/Graphics/SVG/1.1/DTD/svg11.dtd">
<!-- Generated by graphviz version 2.43.0 (0)
 -->
<!-- Title: time/cron.c Pages: 1 -->
<svg width="413pt" height="252pt"
 viewBox="0.00 0.00 413.00 252.00" xmlns="http://www.w3.org/2000/svg" xmlns:xlink="http://www.w3.org/1999/xlink">
<g id="graph0" class="graph" transform="scale(1 1) rotate(0) translate(4 248)">
<title>time/cron.c</title>
<!-- Node1 -->
<g id="node1" class="node">
<title>Node1</title>
<g id="a_node1"><a xlink:title="Cron&#45;like scheduling framework implementations.">
<polygon fill="#bfbfbf" stroke="black" points="99,-224.5 99,-243.5 170,-243.5 170,-224.5 99,-224.5"/>
<text text-anchor="middle" x="134.5" y="-231.5" font-family="Helvetica,sans-Serif" font-size="10.00">time/cron.c</text>
</a>
</g>
</g>
<!-- Node2 -->
<g id="node2" class="node">
<title>Node2</title>
<g id="a_node2"><a xlink:href="cron_8h.html" target="_top" xlink:title="Cron&#45;like scheduling framework for embebedded systems.">
<polygon fill="none" stroke="black" points="111,-168.5 111,-187.5 158,-187.5 158,-168.5 111,-168.5"/>
<text text-anchor="middle" x="134.5" y="-175.5" font-family="Helvetica,sans-Serif" font-size="10.00">cron.h</text>
</a>
</g>
</g>
<!-- Node1&#45;&gt;Node2 -->
<g id="edge1" class="edge">
<title>Node1&#45;&gt;Node2</title>
<path fill="none" stroke="midnightblue" d="M134.5,-224.08C134.5,-217.01 134.5,-206.86 134.5,-197.99"/>
<polygon fill="midnightblue" stroke="midnightblue" points="138,-197.75 134.5,-187.75 131,-197.75 138,-197.75"/>
</g>
<!-- Node3 -->
<g id="node3" class="node">
<title>Node3</title>
<g id="a_node3"><a xlink:title=" ">
<polygon fill="none" stroke="#bfbfbf" points="71.5,-112.5 71.5,-131.5 127.5,-131.5 127.5,-112.5 71.5,-112.5"/>
<text text-anchor="middle" x="99.5" y="-119.5" font-family="Helvetica,sans-Serif" font-size="10.00">stddef.h</text>
</a>
</g>
</g>
<!-- Node2&#45;&gt;Node3 -->
<g id="edge2" class="edge">
<title>Node2&#45;&gt;Node3</title>
<path fill="none" stroke="midnightblue" d="M128.72,-168.08C123.83,-160.53 116.67,-149.49 110.67,-140.23"/>
<polygon fill="midnightblue" stroke="midnightblue" points="113.55,-138.24 105.17,-131.75 107.67,-142.05 113.55,-138.24"/>
</g>
<!-- Node4 -->
<g id="node4" class="node">
<title>Node4</title>
<g id="a_node4"><a xlink:href="time_8h.html" target="_top" xlink:title="Time related functions for embebedded systems.">
<polygon fill="none" stroke="black" points="145.5,-112.5 145.5,-131.5 193.5,-131.5 193.5,-112.5 145.5,-112.5"/>
<text text-anchor="middle" x="169.5" y="-119.5" font-family="Helvetica,sans-Serif" font-size="10.00">time.h</text>
</a>
</g>
</g>
<!-- Node2&#45;&gt;Node4 -->
<g id="edge3" class="edge">
<title>Node2&#45;&gt;Node4</title>
<path fill="none" stroke="midnightblue" d="M140.28,-168.08C145.17,-160.53 152.33,-149.49 158.33,-140.23"/>
<polygon fill="midnightblue" stroke="midnightblue" points="161.33,-142.05 163.83,-131.75 155.45,-138.24 161.33,-142.05"/>
</g>
<!-- Node5 -->
<g id="node5" class="node">
<title>Node5</title>
<g id="a_node5"><a xlink:title=" ">
<polygon fill="none" stroke="#bfbfbf" points="0,-56.5 0,-75.5 53,-75.5 53,-56.5 0,-56.5"/>
<text text-anchor="middle" x="26.5" y="-63.5" font-family="Helvetica,sans-Serif" font-size="10.00">stdint.h</text>
</a>
</g>
</g>
<!-- Node4&#45;&gt;Node5 -->
<g id="edge4" class="edge">
<title>Node4&#45;&gt;Node5</title>
<path fill="none" stroke="midnightblue" d="M146.84,-112.44C123.1,-103.48 85.59,-89.31 58.76,-79.18"/>
<polygon fill="midnightblue" stroke="midnightblue" points="59.64,-75.77 49.05,-75.52 57.17,-82.32 59.64,-75.77"/>
</g>
<!-- Node6 -->
<g id="node6" class="node">
<title>Node6</title>
<g id="a_node6"><a xlink:title=" ">
<polygon fill="none" stroke="#bfbfbf" points="71,-56.5 71,-75.5 124,-75.5 124,-56.5 71,-56.5"/>
<text text-anchor="middle" x="97.5" y="-63.5" font-family="Helvetica,sans-Serif" font-size="10.00">string.h</text>
</a>
</g>
</g>
<!-- Node4&#45;&gt;Node6 -->
<g id="edge5" class="edge">
<title>Node4&#45;&gt;Node6</title>
<path fill="none" stroke="midnightblue" d="M157.93,-112.32C147.08,-104.18 130.62,-91.84 117.62,-82.09"/>
<polygon fill="midnightblue" stroke="midnightblue" points="119.38,-79.03 109.28,-75.83 115.18,-84.63 119.38,-79.03"/>
</g>
<!-- Node7 -->
<g id="node7" class="node">
<title>Node7</title>
<g id="a_node7"><a xlink:href="config_8h_source.html" target="_top" xlink:title=" ">
<polygon fill="none" stroke="black" points="142,-56.5 142,-75.5 197,-75.5 197,-56.5 142,-56.5"/>
<text text-anchor="middle" x="169.5" y="-63.5" font-family="Helvetica,sans-Serif" font-size="10.00">config.h</text>
</a>
</g>
</g>
<!-- Node4&#45;&gt;Node7 -->
<g id="edge6" class="edge">
<title>Node4&#45;&gt;Node7</title>
<path fill="none" stroke="midnightblue" d="M169.5,-112.08C169.5,-105.01 169.5,-94.86 169.5,-85.99"/>
<polygon fill="midnightblue" stroke="midnightblue" points="173,-85.75 169.5,-75.75 166,-85.75 173,-85.75"/>
</g>
<!-- Node9 -->
<g id="node9" class="node">
<title>Node9</title>
<g id="a_node9"><a xlink:title=" ">
<polygon fill="none" stroke="#bfbfbf" points="215.5,-56.5 215.5,-75.5 303.5,-75.5 303.5,-56.5 215.5,-56.5"/>
<text text-anchor="middle" x="259.5" y="-63.5" font-family="Helvetica,sans-Serif" font-size="10.00">platform/cpu.h</text>
</a>
</g>
</g>
<!-- Node4&#45;&gt;Node9 -->
<g id="edge8" class="edge">
<title>Node4&#45;&gt;Node9</title>
<path fill="none" stroke="midnightblue" d="M183.96,-112.32C198,-103.9 219.55,-90.97 236.04,-81.07"/>
<polygon fill="midnightblue" stroke="midnightblue" points="238.3,-83.8 245.08,-75.65 234.7,-77.8 238.3,-83.8"/>
</g>
<!-- Node10 -->
<g id="node10" class="node">
<title>Node10</title>
<g id="a_node10"><a xlink:title=" ">
<polygon fill="none" stroke="#bfbfbf" points="322,-56.5 322,-75.5 405,-75.5 405,-56.5 322,-56.5"/>
<text text-anchor="middle" x="363.5" y="-63.5" font-family="Helvetica,sans-Serif" font-size="10.00">ucdm/ucdm.h</text>
</a>
</g>
</g>
<!-- Node4&#45;&gt;Node10 -->
<g id="edge9" class="edge">
<title>Node4&#45;&gt;Node10</title>
<path fill="none" stroke="midnightblue" d="M193.68,-114.27C226.03,-105.26 283.86,-89.17 322.94,-78.29"/>
<polygon fill="midnightblue" stroke="midnightblue" points="324.24,-81.56 332.94,-75.51 322.37,-74.82 324.24,-81.56"/>
</g>
<!-- Node8 -->
<g id="node8" class="node">
<title>Node8</title>
<g id="a_node8"><a xlink:title=" ">
<polygon fill="none" stroke="#bfbfbf" points="129.5,-0.5 129.5,-19.5 209.5,-19.5 209.5,-0.5 129.5,-0.5"/>
<text text-anchor="middle" x="169.5" y="-7.5" font-family="Helvetica,sans-Serif" font-size="10.00">application.h</text>
</a>
</g>
</g>
<!-- Node7&#45;&gt;Node8 -->
<g id="edge7" class="edge">
<title>Node7&#45;&gt;Node8</title>
<path fill="none" stroke="midnightblue" d="M169.5,-56.08C169.5,-49.01 169.5,-38.86 169.5,-29.99"/>
<polygon fill="midnightblue" stroke="midnightblue" points="173,-29.75 169.5,-19.75 166,-29.75 173,-29.75"/>
</g>
</g>
</svg>
