<?xml version="1.0" encoding="UTF-8" standalone="no"?>
<!DOCTYPE svg PUBLIC "-//W3C//DTD SVG 1.1//EN"
 "http://www.w3.org/Graphics/SVG/1.1/DTD/svg11.dtd">
<!-- Generated by graphviz version 2.43.0 (0)
 -->
<!-- Title: time/cron.c Pages: 1 -->
<svg width="312pt" height="252pt"
 viewBox="0.00 0.00 311.50 252.00" xmlns="http://www.w3.org/2000/svg" xmlns:xlink="http://www.w3.org/1999/xlink">
<g id="graph0" class="graph" transform="scale(1 1) rotate(0) translate(4 248)">
<title>time/cron.c</title>
<!-- Node1 -->
<g id="node1" class="node">
<title>Node1</title>
<g id="a_node1"><a xlink:title="Cron&#45;like scheduling framework implementations.">
<polygon fill="#bfbfbf" stroke="black" points="63,-224.5 63,-243.5 134,-243.5 134,-224.5 63,-224.5"/>
<text text-anchor="middle" x="98.5" y="-231.5" font-family="Helvetica,sans-Serif" font-size="10.00">time/cron.c</text>
</a>
</g>
</g>
<!-- Node2 -->
<g id="node2" class="node">
<title>Node2</title>
<g id="a_node2"><a xlink:href="cron_8h.html" target="_top" xlink:title="Cron&#45;like scheduling framework for embebedded systems.">
<polygon fill="none" stroke="black" points="75,-168.5 75,-187.5 122,-187.5 122,-168.5 75,-168.5"/>
<text text-anchor="middle" x="98.5" y="-175.5" font-family="Helvetica,sans-Serif" font-size="10.00">cron.h</text>
</a>
</g>
</g>
<!-- Node1&#45;&gt;Node2 -->
<g id="edge1" class="edge">
<title>Node1&#45;&gt;Node2</title>
<path fill="none" stroke="midnightblue" d="M98.5,-224.08C98.5,-217.01 98.5,-206.86 98.5,-197.99"/>
<polygon fill="midnightblue" stroke="midnightblue" points="102,-197.75 98.5,-187.75 95,-197.75 102,-197.75"/>
</g>
<!-- Node3 -->
<g id="node3" class="node">
<title>Node3</title>
<g id="a_node3"><a xlink:title=" ">
<polygon fill="none" stroke="#bfbfbf" points="35.5,-112.5 35.5,-131.5 91.5,-131.5 91.5,-112.5 35.5,-112.5"/>
<text text-anchor="middle" x="63.5" y="-119.5" font-family="Helvetica,sans-Serif" font-size="10.00">stddef.h</text>
</a>
</g>
</g>
<!-- Node2&#45;&gt;Node3 -->
<g id="edge2" class="edge">
<title>Node2&#45;&gt;Node3</title>
<path fill="none" stroke="midnightblue" d="M92.72,-168.08C87.83,-160.53 80.67,-149.49 74.67,-140.23"/>
<polygon fill="midnightblue" stroke="midnightblue" points="77.55,-138.24 69.17,-131.75 71.67,-142.05 77.55,-138.24"/>
</g>
<!-- Node4 -->
<g id="node4" class="node">
<title>Node4</title>
<g id="a_node4"><a xlink:href="time_8h.html" target="_top" xlink:title="Time related functions for embebedded systems.">
<polygon fill="none" stroke="black" points="109.5,-112.5 109.5,-131.5 157.5,-131.5 157.5,-112.5 109.5,-112.5"/>
<text text-anchor="middle" x="133.5" y="-119.5" font-family="Helvetica,sans-Serif" font-size="10.00">time.h</text>
</a>
</g>
</g>
<!-- Node2&#45;&gt;Node4 -->
<g id="edge3" class="edge">
<title>Node2&#45;&gt;Node4</title>
<path fill="none" stroke="midnightblue" d="M104.28,-168.08C109.17,-160.53 116.33,-149.49 122.33,-140.23"/>
<polygon fill="midnightblue" stroke="midnightblue" points="125.33,-142.05 127.83,-131.75 119.45,-138.24 125.33,-142.05"/>
</g>
<!-- Node5 -->
<g id="node5" class="node">
<title>Node5</title>
<g id="a_node5"><a xlink:title=" ">
<polygon fill="none" stroke="#bfbfbf" points="0,-56.5 0,-75.5 53,-75.5 53,-56.5 0,-56.5"/>
<text text-anchor="middle" x="26.5" y="-63.5" font-family="Helvetica,sans-Serif" font-size="10.00">stdint.h</text>
</a>
</g>
</g>
<!-- Node4&#45;&gt;Node5 -->
<g id="edge4" class="edge">
<title>Node4&#45;&gt;Node5</title>
<path fill="none" stroke="midnightblue" d="M116.31,-112.32C99.15,-103.66 72.55,-90.24 52.75,-80.25"/>
<polygon fill="midnightblue" stroke="midnightblue" points="54.15,-77.04 43.65,-75.65 51,-83.28 54.15,-77.04"/>
</g>
<!-- Node6 -->
<g id="node6" class="node">
<title>Node6</title>
<g id="a_node6"><a xlink:title=" ">
<polygon fill="none" stroke="#bfbfbf" points="71,-56.5 71,-75.5 124,-75.5 124,-56.5 71,-56.5"/>
<text text-anchor="middle" x="97.5" y="-63.5" font-family="Helvetica,sans-Serif" font-size="10.00">string.h</text>
</a>
</g>
</g>
<!-- Node4&#45;&gt;Node6 -->
<g id="edge5" class="edge">
<title>Node4&#45;&gt;Node6</title>
<path fill="none" stroke="midnightblue" d="M127.56,-112.08C122.52,-104.53 115.16,-93.49 108.99,-84.23"/>
<polygon fill="midnightblue" stroke="midnightblue" points="111.79,-82.13 103.33,-75.75 105.97,-86.01 111.79,-82.13"/>
</g>
<!-- Node7 -->
<g id="node7" class="node">
<title>Node7</title>
<g id="a_node7"><a xlink:href="config_8h_source.html" target="_top" xlink:title=" ">
<polygon fill="none" stroke="black" points="142,-56.5 142,-75.5 197,-75.5 197,-56.5 142,-56.5"/>
<text text-anchor="middle" x="169.5" y="-63.5" font-family="Helvetica,sans-Serif" font-size="10.00">config.h</text>
</a>
</g>
</g>
<!-- Node4&#45;&gt;Node7 -->
<g id="edge6" class="edge">
<title>Node4&#45;&gt;Node7</title>
<path fill="none" stroke="midnightblue" d="M139.44,-112.08C144.48,-104.53 151.84,-93.49 158.01,-84.23"/>
<polygon fill="midnightblue" stroke="midnightblue" points="161.03,-86.01 163.67,-75.75 155.21,-82.13 161.03,-86.01"/>
</g>
<!-- Node9 -->
<g id="node9" class="node">
<title>Node9</title>
<g id="a_node9"><a xlink:title=" ">
<polygon fill="none" stroke="#bfbfbf" points="215.5,-56.5 215.5,-75.5 303.5,-75.5 303.5,-56.5 215.5,-56.5"/>
<text text-anchor="middle" x="259.5" y="-63.5" font-family="Helvetica,sans-Serif" font-size="10.00">platform/cpu.h</text>
</a>
</g>
</g>
<!-- Node4&#45;&gt;Node9 -->
<g id="edge8" class="edge">
<title>Node4&#45;&gt;Node9</title>
<path fill="none" stroke="midnightblue" d="M153.47,-112.44C174.11,-103.6 206.56,-89.69 230.13,-79.59"/>
<polygon fill="midnightblue" stroke="midnightblue" points="231.82,-82.67 239.63,-75.52 229.06,-76.24 231.82,-82.67"/>
</g>
<!-- Node8 -->
<g id="node8" class="node">
<title>Node8</title>
<g id="a_node8"><a xlink:title=" ">
<polygon fill="none" stroke="#bfbfbf" points="129.5,-0.5 129.5,-19.5 209.5,-19.5 209.5,-0.5 129.5,-0.5"/>
<text text-anchor="middle" x="169.5" y="-7.5" font-family="Helvetica,sans-Serif" font-size="10.00">application.h</text>
</a>
</g>
</g>
<!-- Node7&#45;&gt;Node8 -->
<g id="edge7" class="edge">
<title>Node7&#45;&gt;Node8</title>
<path fill="none" stroke="midnightblue" d="M169.5,-56.08C169.5,-49.01 169.5,-38.86 169.5,-29.99"/>
<polygon fill="midnightblue" stroke="midnightblue" points="173,-29.75 169.5,-19.75 166,-29.75 173,-29.75"/>
</g>
</g>
</svg>
