<?xml version="1.0" encoding="UTF-8" standalone="no"?>
<!DOCTYPE svg PUBLIC "-//W3C//DTD SVG 1.1//EN"
 "http://www.w3.org/Graphics/SVG/1.1/DTD/svg11.dtd">
<!-- Generated by graphviz version 2.43.0 (0)
 -->
<!-- Title: tm_cron_create_job_rel Pages: 1 -->
<svg width="410pt" height="101pt"
 viewBox="0.00 0.00 410.00 101.00" xmlns="http://www.w3.org/2000/svg" xmlns:xlink="http://www.w3.org/1999/xlink">
<g id="graph0" class="graph" transform="scale(1 1) rotate(0) translate(4 97)">
<title>tm_cron_create_job_rel</title>
<!-- Node1 -->
<g id="Node000001" class="node">
<title>Node1</title>
<g id="a_Node000001"><a xlink:title=" ">
<polygon fill="#999999" stroke="#666666" points="131,-56 0,-56 0,-37 131,-37 131,-56"/>
<text text-anchor="middle" x="65.5" y="-44" font-family="Helvetica,sans-Serif" font-size="10.00">tm_cron_create_job_rel</text>
</a>
</g>
</g>
<!-- Node2 -->
<g id="Node000002" class="node">
<title>Node2</title>
<g id="a_Node000002"><a xlink:href="time_8h.html#a020bc3b6a0701a332d55523b44d837ae" target="_top" xlink:title="Apply a time difference to a time in system time.">
<polygon fill="white" stroke="#666666" points="271,-93 173,-93 173,-74 271,-74 271,-93"/>
<text text-anchor="middle" x="222" y="-81" font-family="Helvetica,sans-Serif" font-size="10.00">tm_apply_sdelta</text>
</a>
</g>
</g>
<!-- Node1&#45;&gt;Node2 -->
<g id="edge1_Node000001_Node000002" class="edge">
<title>Node1&#45;&gt;Node2</title>
<g id="a_edge1_Node000001_Node000002"><a xlink:title=" ">
<path fill="none" stroke="#63b8ff" d="M106.29,-56.03C126.12,-60.78 150.31,-66.57 171.35,-71.61"/>
<polygon fill="#63b8ff" stroke="#63b8ff" points="170.54,-75.01 181.08,-73.94 172.17,-68.21 170.54,-75.01"/>
</a>
</g>
</g>
<!-- Node3 -->
<g id="Node000003" class="node">
<title>Node3</title>
<g id="a_Node000003"><a xlink:href="cron_8c.html#abf90aa38172b4830afeb0a113be640eb" target="_top" xlink:title=" ">
<polygon fill="white" stroke="#666666" points="277,-56 167,-56 167,-37 277,-37 277,-56"/>
<text text-anchor="middle" x="222" y="-44" font-family="Helvetica,sans-Serif" font-size="10.00">tm_cron_insert_job</text>
</a>
</g>
</g>
<!-- Node1&#45;&gt;Node3 -->
<g id="edge2_Node000001_Node000003" class="edge">
<title>Node1&#45;&gt;Node3</title>
<g id="a_edge2_Node000001_Node000003"><a xlink:title=" ">
<path fill="none" stroke="#63b8ff" d="M131.13,-46.5C139.59,-46.5 148.27,-46.5 156.72,-46.5"/>
<polygon fill="#63b8ff" stroke="#63b8ff" points="156.91,-50 166.91,-46.5 156.91,-43 156.91,-50"/>
</a>
</g>
</g>
<!-- Node5 -->
<g id="Node000005" class="node">
<title>Node5</title>
<g id="a_Node000005"><a xlink:href="time_8h.html#a359fb93dd777b89c84bccc983cfbba25" target="_top" xlink:title="Get the current system time.">
<polygon fill="white" stroke="#666666" points="271,-19 173,-19 173,0 271,0 271,-19"/>
<text text-anchor="middle" x="222" y="-7" font-family="Helvetica,sans-Serif" font-size="10.00">tm_current_time</text>
</a>
</g>
</g>
<!-- Node1&#45;&gt;Node5 -->
<g id="edge4_Node000001_Node000005" class="edge">
<title>Node1&#45;&gt;Node5</title>
<g id="a_edge4_Node000001_Node000005"><a xlink:title=" ">
<path fill="none" stroke="#63b8ff" d="M106.29,-36.97C126.12,-32.22 150.31,-26.43 171.35,-21.39"/>
<polygon fill="#63b8ff" stroke="#63b8ff" points="172.17,-24.79 181.08,-19.06 170.54,-17.99 172.17,-24.79"/>
</a>
</g>
</g>
<!-- Node4 -->
<g id="Node000004" class="node">
<title>Node4</title>
<g id="a_Node000004"><a xlink:href="time_8h.html#a34b852789210f305cc7bd1c68d0abb16" target="_top" xlink:title=" ">
<polygon fill="white" stroke="#666666" points="402,-56 313,-56 313,-37 402,-37 402,-56"/>
<text text-anchor="middle" x="357.5" y="-44" font-family="Helvetica,sans-Serif" font-size="10.00">tm_cmp_stime</text>
</a>
</g>
</g>
<!-- Node3&#45;&gt;Node4 -->
<g id="edge3_Node000003_Node000004" class="edge">
<title>Node3&#45;&gt;Node4</title>
<g id="a_edge3_Node000003_Node000004"><a xlink:title=" ">
<path fill="none" stroke="#63b8ff" d="M277.3,-46.5C285.72,-46.5 294.41,-46.5 302.81,-46.5"/>
<polygon fill="#63b8ff" stroke="#63b8ff" points="302.88,-50 312.88,-46.5 302.88,-43 302.88,-50"/>
</a>
</g>
</g>
</g>
</svg>
