<?xml version="1.0" encoding="UTF-8" standalone="no"?>
<!DOCTYPE svg PUBLIC "-//W3C//DTD SVG 1.1//EN"
 "http://www.w3.org/Graphics/SVG/1.1/DTD/svg11.dtd">
<!-- Generated by graphviz version 2.43.0 (0)
 -->
<!-- Title: time/cron.h Pages: 1 -->
<svg width="170pt" height="82pt"
 viewBox="0.00 0.00 170.00 82.00" xmlns="http://www.w3.org/2000/svg" xmlns:xlink="http://www.w3.org/1999/xlink">
<g id="graph0" class="graph" transform="scale(1 1) rotate(0) translate(4 78)">
<title>time/cron.h</title>
<!-- Node1 -->
<g id="Node000001" class="node">
<title>Node1</title>
<g id="a_Node000001"><a xlink:title="Cron&#45;like scheduling framework for embebedded systems.">
<polygon fill="#999999" stroke="#666666" points="116.5,-74 44.5,-74 44.5,-55 116.5,-55 116.5,-74"/>
<text text-anchor="middle" x="80.5" y="-62" font-family="Helvetica,sans-Serif" font-size="10.00">time/cron.h</text>
</a>
</g>
</g>
<!-- Node2 -->
<g id="Node000002" class="node">
<title>Node2</title>
<g id="a_Node000002"><a xlink:href="cron_8c.html" target="_top" xlink:title="Cron&#45;like scheduling framework implementations.">
<polygon fill="white" stroke="#666666" points="71,-19 0,-19 0,0 71,0 71,-19"/>
<text text-anchor="middle" x="35.5" y="-7" font-family="Helvetica,sans-Serif" font-size="10.00">time/cron.c</text>
</a>
</g>
</g>
<!-- Node1&#45;&gt;Node2 -->
<g id="edge1_Node000001_Node000002" class="edge">
<title>Node1&#45;&gt;Node2</title>
<g id="a_edge1_Node000001_Node000002"><a xlink:title=" ">
<path fill="none" stroke="#63b8ff" d="M66.45,-46.96C58.61,-37.72 49.17,-26.6 42.79,-19.09"/>
<polygon fill="#63b8ff" stroke="#63b8ff" points="63.93,-49.39 73.07,-54.75 69.26,-44.86 63.93,-49.39"/>
</a>
</g>
</g>
<!-- Node3 -->
<g id="Node000003" class="node">
<title>Node3</title>
<g id="a_Node000003"><a xlink:href="time_8c.html" target="_top" xlink:title="Time related function implementations.">
<polygon fill="white" stroke="#666666" points="162,-19 89,-19 89,0 162,0 162,-19"/>
<text text-anchor="middle" x="125.5" y="-7" font-family="Helvetica,sans-Serif" font-size="10.00">time/time.c</text>
</a>
</g>
</g>
<!-- Node1&#45;&gt;Node3 -->
<g id="edge2_Node000001_Node000003" class="edge">
<title>Node1&#45;&gt;Node3</title>
<g id="a_edge2_Node000001_Node000003"><a xlink:title=" ">
<path fill="none" stroke="#63b8ff" d="M94.55,-46.96C102.39,-37.72 111.83,-26.6 118.21,-19.09"/>
<polygon fill="#63b8ff" stroke="#63b8ff" points="91.74,-44.86 87.93,-54.75 97.07,-49.39 91.74,-44.86"/>
</a>
</g>
</g>
</g>
</svg>
