<?xml version="1.0" encoding="UTF-8" standalone="no"?>
<!DOCTYPE svg PUBLIC "-//W3C//DTD SVG 1.1//EN"
 "http://www.w3.org/Graphics/SVG/1.1/DTD/svg11.dtd">
<!-- Generated by graphviz version 2.43.0 (0)
 -->
<!-- Title: tm_cron_replace_job Pages: 1 -->
<svg width="400pt" height="64pt"
 viewBox="0.00 0.00 400.00 64.00" xmlns="http://www.w3.org/2000/svg" xmlns:xlink="http://www.w3.org/1999/xlink">
<g id="graph0" class="graph" transform="scale(1 1) rotate(0) translate(4 60)">
<title>tm_cron_replace_job</title>
<!-- Node1 -->
<g id="Node000001" class="node">
<title>Node1</title>
<g id="a_Node000001"><a xlink:title=" ">
<polygon fill="#999999" stroke="#666666" points="118,-37 0,-37 0,-18 118,-18 118,-37"/>
<text text-anchor="middle" x="59" y="-25" font-family="Helvetica,sans-Serif" font-size="10.00">tm_cron_replace_job</text>
</a>
</g>
</g>
<!-- Node2 -->
<g id="Node000002" class="node">
<title>Node2</title>
<g id="a_Node000002"><a xlink:href="cron_8c.html#afe1c43d60c56c95d6cdd32b36738a401" target="_top" xlink:title=" ">
<polygon fill="white" stroke="#666666" points="267,-56 154,-56 154,-37 267,-37 267,-56"/>
<text text-anchor="middle" x="210.5" y="-44" font-family="Helvetica,sans-Serif" font-size="10.00">tm_cron_cancel_job</text>
</a>
</g>
</g>
<!-- Node1&#45;&gt;Node2 -->
<g id="edge1_Node000001_Node000002" class="edge">
<title>Node1&#45;&gt;Node2</title>
<g id="a_edge1_Node000001_Node000002"><a xlink:title=" ">
<path fill="none" stroke="#63b8ff" d="M118.23,-34.9C126.51,-35.95 135.07,-37.04 143.48,-38.11"/>
<polygon fill="#63b8ff" stroke="#63b8ff" points="143.27,-41.61 153.64,-39.4 144.16,-34.67 143.27,-41.61"/>
</a>
</g>
</g>
<!-- Node3 -->
<g id="Node000003" class="node">
<title>Node3</title>
<g id="a_Node000003"><a xlink:href="cron_8c.html#abf90aa38172b4830afeb0a113be640eb" target="_top" xlink:title=" ">
<polygon fill="white" stroke="#666666" points="265.5,-19 155.5,-19 155.5,0 265.5,0 265.5,-19"/>
<text text-anchor="middle" x="210.5" y="-7" font-family="Helvetica,sans-Serif" font-size="10.00">tm_cron_insert_job</text>
</a>
</g>
</g>
<!-- Node1&#45;&gt;Node3 -->
<g id="edge2_Node000001_Node000003" class="edge">
<title>Node1&#45;&gt;Node3</title>
<g id="a_edge2_Node000001_Node000003"><a xlink:title=" ">
<path fill="none" stroke="#63b8ff" d="M118.23,-20.49C127.04,-19.43 136.18,-18.33 145.12,-17.25"/>
<polygon fill="#63b8ff" stroke="#63b8ff" points="145.59,-20.72 155.1,-16.05 144.75,-13.77 145.59,-20.72"/>
</a>
</g>
</g>
<!-- Node4 -->
<g id="Node000004" class="node">
<title>Node4</title>
<g id="a_Node000004"><a xlink:href="time_8h.html#a34b852789210f305cc7bd1c68d0abb16" target="_top" xlink:title=" ">
<polygon fill="white" stroke="#666666" points="392,-19 303,-19 303,0 392,0 392,-19"/>
<text text-anchor="middle" x="347.5" y="-7" font-family="Helvetica,sans-Serif" font-size="10.00">tm_cmp_stime</text>
</a>
</g>
</g>
<!-- Node3&#45;&gt;Node4 -->
<g id="edge3_Node000003_Node000004" class="edge">
<title>Node3&#45;&gt;Node4</title>
<g id="a_edge3_Node000003_Node000004"><a xlink:title=" ">
<path fill="none" stroke="#63b8ff" d="M265.63,-9.5C274.49,-9.5 283.67,-9.5 292.52,-9.5"/>
<polygon fill="#63b8ff" stroke="#63b8ff" points="292.73,-13 302.73,-9.5 292.73,-6 292.73,-13"/>
</a>
</g>
</g>
</g>
</svg>
