<?xml version="1.0" encoding="UTF-8" standalone="no"?>
<!DOCTYPE svg PUBLIC "-//W3C//DTD SVG 1.1//EN"
 "http://www.w3.org/Graphics/SVG/1.1/DTD/svg11.dtd">
<!-- Generated by graphviz version 2.43.0 (0)
 -->
<!-- Title: CRON_JOB_t Pages: 1 -->
<svg width="198pt" height="97pt"
 viewBox="0.00 0.00 198.00 97.00" xmlns="http://www.w3.org/2000/svg" xmlns:xlink="http://www.w3.org/1999/xlink">
<g id="graph0" class="graph" transform="scale(1 1) rotate(0) translate(4 93)">
<title>CRON_JOB_t</title>
<!-- Node1 -->
<g id="node1" class="node">
<title>Node1</title>
<g id="a_node1"><a xlink:title=" ">
<polygon fill="#bfbfbf" stroke="black" points="55,-1.5 55,-20.5 132,-20.5 132,-1.5 55,-1.5"/>
<text text-anchor="middle" x="93.5" y="-8.5" font-family="Helvetica,sans-Serif" font-size="10.00">CRON_JOB_t</text>
</a>
</g>
</g>
<!-- Node1&#45;&gt;Node1 -->
<g id="edge1" class="edge">
<title>Node1&#45;&gt;Node1</title>
<path fill="none" stroke="#9a32cd" stroke-dasharray="5,2" d="M142.22,-16.18C146.98,-15.13 150,-13.41 150,-11 150,-7.15 142.27,-5.04 132.06,-4.68"/>
<polygon fill="#9a32cd" stroke="#9a32cd" points="141.6,-12.72 132.06,-17.32 142.38,-19.68 141.6,-12.72"/>
<text text-anchor="middle" x="170" y="-14" font-family="Helvetica,sans-Serif" font-size="10.00"> nextjob</text>
<text text-anchor="middle" x="170" y="-3" font-family="Helvetica,sans-Serif" font-size="10.00">prevjob</text>
</g>
<!-- Node2 -->
<g id="node2" class="node">
<title>Node2</title>
<g id="a_node2"><a xlink:href="struct_t_m___s_y_s_t_e_m__t.html" target="_top" xlink:title="System Time Storage Type.">
<polygon fill="none" stroke="black" points="0,-69.5 0,-88.5 85,-88.5 85,-69.5 0,-69.5"/>
<text text-anchor="middle" x="42.5" y="-76.5" font-family="Helvetica,sans-Serif" font-size="10.00">TM_SYSTEM_t</text>
</a>
</g>
</g>
<!-- Node2&#45;&gt;Node1 -->
<g id="edge2" class="edge">
<title>Node2&#45;&gt;Node1</title>
<path fill="none" stroke="#9a32cd" stroke-dasharray="5,2" d="M55.4,-61.31C65.34,-48.44 78.7,-31.16 86.67,-20.84"/>
<polygon fill="#9a32cd" stroke="#9a32cd" points="52.51,-59.32 49.17,-69.37 58.05,-63.6 52.51,-59.32"/>
<text text-anchor="middle" x="86.5" y="-43" font-family="Helvetica,sans-Serif" font-size="10.00"> texec</text>
</g>
<!-- Node3 -->
<g id="node3" class="node">
<title>Node3</title>
<g id="a_node3"><a xlink:href="struct_t_m___s_d_e_l_t_a__t.html" target="_top" xlink:title="System Timedelta Storage Type.">
<polygon fill="none" stroke="black" points="103.5,-69.5 103.5,-88.5 185.5,-88.5 185.5,-69.5 103.5,-69.5"/>
<text text-anchor="middle" x="144.5" y="-76.5" font-family="Helvetica,sans-Serif" font-size="10.00">TM_SDELTA_t</text>
</a>
</g>
</g>
<!-- Node3&#45;&gt;Node1 -->
<g id="edge3" class="edge">
<title>Node3&#45;&gt;Node1</title>
<path fill="none" stroke="#9a32cd" stroke-dasharray="5,2" d="M131.6,-61.31C121.66,-48.44 108.3,-31.16 100.33,-20.84"/>
<polygon fill="#9a32cd" stroke="#9a32cd" points="128.95,-63.6 137.83,-69.37 134.49,-59.32 128.95,-63.6"/>
<text text-anchor="middle" x="144" y="-43" font-family="Helvetica,sans-Serif" font-size="10.00"> tafter_p</text>
</g>
</g>
</svg>
