<?xml version="1.0" encoding="UTF-8" standalone="no"?>
<!DOCTYPE svg PUBLIC "-//W3C//DTD SVG 1.1//EN"
 "http://www.w3.org/Graphics/SVG/1.1/DTD/svg11.dtd">
<!-- Generated by graphviz version 2.43.0 (0)
 -->
<!-- Title: time/sync.c Pages: 1 -->
<svg width="413pt" height="247pt"
 viewBox="0.00 0.00 413.00 247.00" xmlns="http://www.w3.org/2000/svg" xmlns:xlink="http://www.w3.org/1999/xlink">

<svg id="main" version="1.1" xmlns="http://www.w3.org/2000/svg" xmlns:xlink="http://www.w3.org/1999/xlink" xml:space="preserve" onload="init(evt)">
<style type="text/css"><![CDATA[
.node, .edge {opacity: 0.7;}
.node.selected, .edge.selected {opacity: 1;}
.edge:hover path { stroke: red; }
.edge:hover polygon { stroke: red; fill: red; }
]]></style>
<script type="application/ecmascript" xlink:href="svg.min.js"/>
<svg id="graph" class="graph">
<g id="graph0" class="graph" transform="scale(1 1) rotate(0) translate(4 243)">
<title>time/sync.c</title>
<!-- Node1 -->
<g id="Node000001" class="node">
<title>Node1</title>
<g id="a_Node000001"><a xlink:title="Time synchonization function implementation.">
<polygon fill="#999999" stroke="#666666" points="232,-239 159,-239 159,-220 232,-220 232,-239"/>
<text text-anchor="middle" x="195.5" y="-227" font-family="Helvetica,sans-Serif" font-size="10.00">time/sync.c</text>
</a>
</g>
</g>
<!-- Node2 -->
<g id="Node000002" class="node">
<title>Node2</title>
<g id="a_Node000002"><a xlink:href="time_8h.html" target="_top" xlink:title="Time related functions for embebedded systems.">
<polygon fill="white" stroke="#666666" points="193.5,-129 145.5,-129 145.5,-110 193.5,-110 193.5,-129"/>
<text text-anchor="middle" x="169.5" y="-117" font-family="Helvetica,sans-Serif" font-size="10.00">time.h</text>
</a>
</g>
</g>
<!-- Node1&#45;&gt;Node2 -->
<g id="edge1_Node000001_Node000002" class="edge">
<title>Node1&#45;&gt;Node2</title>
<g id="a_edge1_Node000001_Node000002"><a xlink:title=" ">
<path fill="none" stroke="#63b8ff" d="M193.37,-219.66C189.14,-202.09 179.6,-162.45 173.94,-138.95"/>
<polygon fill="#63b8ff" stroke="#63b8ff" points="177.33,-138.06 171.58,-129.16 170.52,-139.7 177.33,-138.06"/>
</a>
</g>
</g>
<!-- Node9 -->
<g id="Node000009" class="node">
<title>Node9</title>
<g id="a_Node000009"><a xlink:href="sync_8h.html" target="_top" xlink:title="Time synchonization functions for embebedded systems.">
<polygon fill="white" stroke="#666666" points="245.5,-184 197.5,-184 197.5,-165 245.5,-165 245.5,-184"/>
<text text-anchor="middle" x="221.5" y="-172" font-family="Helvetica,sans-Serif" font-size="10.00">sync.h</text>
</a>
</g>
</g>
<!-- Node1&#45;&gt;Node9 -->
<g id="edge8_Node000001_Node000009" class="edge">
<title>Node1&#45;&gt;Node9</title>
<g id="a_edge8_Node000001_Node000009"><a xlink:title=" ">
<path fill="none" stroke="#63b8ff" d="M199.79,-219.75C203.31,-212.57 208.41,-202.18 212.78,-193.27"/>
<polygon fill="#63b8ff" stroke="#63b8ff" points="216.02,-194.61 217.29,-184.09 209.74,-191.53 216.02,-194.61"/>
</a>
</g>
</g>
<!-- Node3 -->
<g id="Node000003" class="node">
<title>Node3</title>
<g id="a_Node000003"><a xlink:title=" ">
<polygon fill="#e0e0e0" stroke="#999999" points="53,-74 0,-74 0,-55 53,-55 53,-74"/>
<text text-anchor="middle" x="26.5" y="-62" font-family="Helvetica,sans-Serif" font-size="10.00">stdint.h</text>
</a>
</g>
</g>
<!-- Node2&#45;&gt;Node3 -->
<g id="edge2_Node000002_Node000003" class="edge">
<title>Node2&#45;&gt;Node3</title>
<g id="a_edge2_Node000002_Node000003"><a xlink:title=" ">
<path fill="none" stroke="#63b8ff" d="M146.52,-109.98C123,-101.27 86.21,-87.63 59.56,-77.75"/>
<polygon fill="#63b8ff" stroke="#63b8ff" points="60.49,-74.36 49.89,-74.17 58.05,-80.93 60.49,-74.36"/>
</a>
</g>
</g>
<!-- Node4 -->
<g id="Node000004" class="node">
<title>Node4</title>
<g id="a_Node000004"><a xlink:title=" ">
<polygon fill="#e0e0e0" stroke="#999999" points="124,-74 71,-74 71,-55 124,-55 124,-74"/>
<text text-anchor="middle" x="97.5" y="-62" font-family="Helvetica,sans-Serif" font-size="10.00">string.h</text>
</a>
</g>
</g>
<!-- Node2&#45;&gt;Node4 -->
<g id="edge3_Node000002_Node000004" class="edge">
<title>Node2&#45;&gt;Node4</title>
<g id="a_edge3_Node000002_Node000004"><a xlink:title=" ">
<path fill="none" stroke="#63b8ff" d="M157.93,-109.98C147.08,-102 130.62,-89.88 117.62,-80.31"/>
<polygon fill="#63b8ff" stroke="#63b8ff" points="119.41,-77.28 109.28,-74.17 115.26,-82.92 119.41,-77.28"/>
</a>
</g>
</g>
<!-- Node5 -->
<g id="Node000005" class="node">
<title>Node5</title>
<g id="a_Node000005"><a xlink:href="config_8h.html" target="_top" xlink:title=" ">
<polygon fill="white" stroke="#666666" points="197,-74 142,-74 142,-55 197,-55 197,-74"/>
<text text-anchor="middle" x="169.5" y="-62" font-family="Helvetica,sans-Serif" font-size="10.00">config.h</text>
</a>
</g>
</g>
<!-- Node2&#45;&gt;Node5 -->
<g id="edge4_Node000002_Node000005" class="edge">
<title>Node2&#45;&gt;Node5</title>
<g id="a_edge4_Node000002_Node000005"><a xlink:title=" ">
<path fill="none" stroke="#63b8ff" d="M169.5,-109.75C169.5,-102.8 169.5,-92.85 169.5,-84.13"/>
<polygon fill="#63b8ff" stroke="#63b8ff" points="173,-84.09 169.5,-74.09 166,-84.09 173,-84.09"/>
</a>
</g>
</g>
<!-- Node7 -->
<g id="Node000007" class="node">
<title>Node7</title>
<g id="a_Node000007"><a xlink:title=" ">
<polygon fill="#e0e0e0" stroke="#999999" points="303.5,-74 215.5,-74 215.5,-55 303.5,-55 303.5,-74"/>
<text text-anchor="middle" x="259.5" y="-62" font-family="Helvetica,sans-Serif" font-size="10.00">platform/cpu.h</text>
</a>
</g>
</g>
<!-- Node2&#45;&gt;Node7 -->
<g id="edge6_Node000002_Node000007" class="edge">
<title>Node2&#45;&gt;Node7</title>
<g id="a_edge6_Node000002_Node000007"><a xlink:title=" ">
<path fill="none" stroke="#63b8ff" d="M183.96,-109.98C197.92,-101.77 219.29,-89.18 235.75,-79.49"/>
<polygon fill="#63b8ff" stroke="#63b8ff" points="237.94,-82.26 244.78,-74.17 234.38,-76.23 237.94,-82.26"/>
</a>
</g>
</g>
<!-- Node8 -->
<g id="Node000008" class="node">
<title>Node8</title>
<g id="a_Node000008"><a xlink:title=" ">
<polygon fill="#e0e0e0" stroke="#999999" points="405,-74 322,-74 322,-55 405,-55 405,-74"/>
<text text-anchor="middle" x="363.5" y="-62" font-family="Helvetica,sans-Serif" font-size="10.00">ucdm/ucdm.h</text>
</a>
</g>
</g>
<!-- Node2&#45;&gt;Node8 -->
<g id="edge7_Node000002_Node000008" class="edge">
<title>Node2&#45;&gt;Node8</title>
<g id="a_edge7_Node000002_Node000008"><a xlink:title=" ">
<path fill="none" stroke="#63b8ff" d="M193.68,-111.89C225.85,-103.11 283.19,-87.44 322.26,-76.77"/>
<polygon fill="#63b8ff" stroke="#63b8ff" points="323.55,-80.04 332.27,-74.03 321.7,-73.29 323.55,-80.04"/>
</a>
</g>
</g>
<!-- Node6 -->
<g id="Node000006" class="node">
<title>Node6</title>
<g id="a_Node000006"><a xlink:title=" ">
<polygon fill="#e0e0e0" stroke="#999999" points="209.5,-19 129.5,-19 129.5,0 209.5,0 209.5,-19"/>
<text text-anchor="middle" x="169.5" y="-7" font-family="Helvetica,sans-Serif" font-size="10.00">application.h</text>
</a>
</g>
</g>
<!-- Node5&#45;&gt;Node6 -->
<g id="edge5_Node000005_Node000006" class="edge">
<title>Node5&#45;&gt;Node6</title>
<g id="a_edge5_Node000005_Node000006"><a xlink:title=" ">
<path fill="none" stroke="#63b8ff" d="M169.5,-54.75C169.5,-47.8 169.5,-37.85 169.5,-29.13"/>
<polygon fill="#63b8ff" stroke="#63b8ff" points="173,-29.09 169.5,-19.09 166,-29.09 173,-29.09"/>
</a>
</g>
</g>
<!-- Node9&#45;&gt;Node2 -->
<g id="edge10_Node000009_Node000002" class="edge">
<title>Node9&#45;&gt;Node2</title>
<g id="a_edge10_Node000009_Node000002"><a xlink:title=" ">
<path fill="none" stroke="#63b8ff" d="M212.91,-164.75C205.34,-157.03 194.12,-145.6 184.99,-136.28"/>
<polygon fill="#63b8ff" stroke="#63b8ff" points="187.43,-133.78 177.93,-129.09 182.43,-138.68 187.43,-133.78"/>
</a>
</g>
</g>
<!-- Node10 -->
<g id="Node000010" class="node">
<title>Node10</title>
<g id="a_Node000010"><a xlink:title=" ">
<polygon fill="#e0e0e0" stroke="#999999" points="285.5,-129 211.5,-129 211.5,-110 285.5,-110 285.5,-129"/>
<text text-anchor="middle" x="248.5" y="-117" font-family="Helvetica,sans-Serif" font-size="10.00">ds/avltree.h</text>
</a>
</g>
</g>
<!-- Node9&#45;&gt;Node10 -->
<g id="edge9_Node000009_Node000010" class="edge">
<title>Node9&#45;&gt;Node10</title>
<g id="a_edge9_Node000009_Node000010"><a xlink:title=" ">
<path fill="none" stroke="#63b8ff" d="M225.96,-164.75C229.62,-157.57 234.91,-147.18 239.45,-138.27"/>
<polygon fill="#63b8ff" stroke="#63b8ff" points="242.7,-139.59 244.12,-129.09 236.47,-136.41 242.7,-139.59"/>
</a>
</g>
</g>
</g>
</svg>
</svg>

<style type='text/css'>
<![CDATA[
[data-mouse-over-selected='false'] { opacity: 0.7; }
[data-mouse-over-selected='true']  { opacity: 1.0; }
]]>
</style>
<script type="application/ecmascript"><![CDATA[
document.addEventListener('DOMContentLoaded', (event) => {
  highlightEdges();
  highlightAdjacentNodes();
});
]]></script>
</svg>
