<?xml version="1.0" encoding="UTF-8" standalone="no"?>
<!DOCTYPE svg PUBLIC "-//W3C//DTD SVG 1.1//EN"
 "http://www.w3.org/Graphics/SVG/1.1/DTD/svg11.dtd">
<!-- Generated by graphviz version 2.43.0 (0)
 -->
<!-- Title: time/sync.h Pages: 1 -->
<svg width="281pt" height="82pt"
 viewBox="0.00 0.00 281.00 82.00" xmlns="http://www.w3.org/2000/svg" xmlns:xlink="http://www.w3.org/1999/xlink">
<g id="graph0" class="graph" transform="scale(1 1) rotate(0) translate(4 78)">
<title>time/sync.h</title>
<!-- Node1 -->
<g id="Node000001" class="node">
<title>Node1</title>
<g id="a_Node000001"><a xlink:title="Time synchonization functions for embebedded systems.">
<polygon fill="#999999" stroke="#666666" points="173.5,-74 99.5,-74 99.5,-55 173.5,-55 173.5,-74"/>
<text text-anchor="middle" x="136.5" y="-62" font-family="Helvetica,sans-Serif" font-size="10.00">time/sync.h</text>
</a>
</g>
</g>
<!-- Node2 -->
<g id="Node000002" class="node">
<title>Node2</title>
<g id="a_Node000002"><a xlink:href="sync_8c.html" target="_top" xlink:title="Time synchonization function implementation.">
<polygon fill="white" stroke="#666666" points="73,-19 0,-19 0,0 73,0 73,-19"/>
<text text-anchor="middle" x="36.5" y="-7" font-family="Helvetica,sans-Serif" font-size="10.00">time/sync.c</text>
</a>
</g>
</g>
<!-- Node1&#45;&gt;Node2 -->
<g id="edge1_Node000001_Node000002" class="edge">
<title>Node1&#45;&gt;Node2</title>
<g id="a_edge1_Node000001_Node000002"><a xlink:title=" ">
<path fill="none" stroke="#63b8ff" d="M111.47,-50.23C93.13,-40.51 68.76,-27.6 52.86,-19.17"/>
<polygon fill="#63b8ff" stroke="#63b8ff" points="109.96,-53.39 120.43,-54.98 113.24,-47.21 109.96,-53.39"/>
</a>
</g>
</g>
<!-- Node3 -->
<g id="Node000003" class="node">
<title>Node3</title>
<g id="a_Node000003"><a xlink:href="sync__rtc_8c.html" target="_top" xlink:title=" ">
<polygon fill="white" stroke="#666666" points="182,-19 91,-19 91,0 182,0 182,-19"/>
<text text-anchor="middle" x="136.5" y="-7" font-family="Helvetica,sans-Serif" font-size="10.00">time/sync_rtc.c</text>
</a>
</g>
</g>
<!-- Node1&#45;&gt;Node3 -->
<g id="edge2_Node000001_Node000003" class="edge">
<title>Node1&#45;&gt;Node3</title>
<g id="a_edge2_Node000001_Node000003"><a xlink:title=" ">
<path fill="none" stroke="#63b8ff" d="M136.5,-44.66C136.5,-35.93 136.5,-25.99 136.5,-19.09"/>
<polygon fill="#63b8ff" stroke="#63b8ff" points="133,-44.75 136.5,-54.75 140,-44.75 133,-44.75"/>
</a>
</g>
</g>
<!-- Node4 -->
<g id="Node000004" class="node">
<title>Node4</title>
<g id="a_Node000004"><a xlink:href="time_8c.html" target="_top" xlink:title="Time related function implementations.">
<polygon fill="white" stroke="#666666" points="273,-19 200,-19 200,0 273,0 273,-19"/>
<text text-anchor="middle" x="236.5" y="-7" font-family="Helvetica,sans-Serif" font-size="10.00">time/time.c</text>
</a>
</g>
</g>
<!-- Node1&#45;&gt;Node4 -->
<g id="edge3_Node000001_Node000004" class="edge">
<title>Node1&#45;&gt;Node4</title>
<g id="a_edge3_Node000001_Node000004"><a xlink:title=" ">
<path fill="none" stroke="#63b8ff" d="M161.53,-50.23C179.87,-40.51 204.24,-27.6 220.14,-19.17"/>
<polygon fill="#63b8ff" stroke="#63b8ff" points="159.76,-47.21 152.57,-54.98 163.04,-53.39 159.76,-47.21"/>
</a>
</g>
</g>
</g>
</svg>
