<?xml version="1.0" encoding="UTF-8" standalone="no"?>
<!DOCTYPE svg PUBLIC "-//W3C//DTD SVG 1.1//EN"
 "http://www.w3.org/Graphics/SVG/1.1/DTD/svg11.dtd">
<!-- Generated by graphviz version 2.43.0 (0)
 -->
<!-- Title: time/sync.h Pages: 1 -->
<svg width="312pt" height="196pt"
 viewBox="0.00 0.00 311.50 196.00" xmlns="http://www.w3.org/2000/svg" xmlns:xlink="http://www.w3.org/1999/xlink">
<g id="graph0" class="graph" transform="scale(1 1) rotate(0) translate(4 192)">
<title>time/sync.h</title>
<!-- Node1 -->
<g id="node1" class="node">
<title>Node1</title>
<g id="a_node1"><a xlink:title="Time synchonization functions for embebedded systems.">
<polygon fill="#bfbfbf" stroke="black" points="56.5,-168.5 56.5,-187.5 130.5,-187.5 130.5,-168.5 56.5,-168.5"/>
<text text-anchor="middle" x="93.5" y="-175.5" font-family="Helvetica,sans-Serif" font-size="10.00">time/sync.h</text>
</a>
</g>
</g>
<!-- Node2 -->
<g id="node2" class="node">
<title>Node2</title>
<g id="a_node2"><a xlink:title=" ">
<polygon fill="none" stroke="#bfbfbf" points="17.5,-112.5 17.5,-131.5 91.5,-131.5 91.5,-112.5 17.5,-112.5"/>
<text text-anchor="middle" x="54.5" y="-119.5" font-family="Helvetica,sans-Serif" font-size="10.00">ds/avltree.h</text>
</a>
</g>
</g>
<!-- Node1&#45;&gt;Node2 -->
<g id="edge1" class="edge">
<title>Node1&#45;&gt;Node2</title>
<path fill="none" stroke="midnightblue" d="M87.06,-168.08C81.55,-160.46 73.47,-149.26 66.74,-139.94"/>
<polygon fill="midnightblue" stroke="midnightblue" points="69.51,-137.81 60.82,-131.75 63.84,-141.91 69.51,-137.81"/>
</g>
<!-- Node3 -->
<g id="node3" class="node">
<title>Node3</title>
<g id="a_node3"><a xlink:href="time_8h.html" target="_top" xlink:title="Time related functions for embebedded systems.">
<polygon fill="none" stroke="black" points="109.5,-112.5 109.5,-131.5 157.5,-131.5 157.5,-112.5 109.5,-112.5"/>
<text text-anchor="middle" x="133.5" y="-119.5" font-family="Helvetica,sans-Serif" font-size="10.00">time.h</text>
</a>
</g>
</g>
<!-- Node1&#45;&gt;Node3 -->
<g id="edge2" class="edge">
<title>Node1&#45;&gt;Node3</title>
<path fill="none" stroke="midnightblue" d="M100.11,-168.08C105.76,-160.46 114.04,-149.26 120.95,-139.94"/>
<polygon fill="midnightblue" stroke="midnightblue" points="123.88,-141.87 127.02,-131.75 118.25,-137.7 123.88,-141.87"/>
</g>
<!-- Node4 -->
<g id="node4" class="node">
<title>Node4</title>
<g id="a_node4"><a xlink:title=" ">
<polygon fill="none" stroke="#bfbfbf" points="0,-56.5 0,-75.5 53,-75.5 53,-56.5 0,-56.5"/>
<text text-anchor="middle" x="26.5" y="-63.5" font-family="Helvetica,sans-Serif" font-size="10.00">stdint.h</text>
</a>
</g>
</g>
<!-- Node3&#45;&gt;Node4 -->
<g id="edge3" class="edge">
<title>Node3&#45;&gt;Node4</title>
<path fill="none" stroke="midnightblue" d="M116.31,-112.32C99.15,-103.66 72.55,-90.24 52.75,-80.25"/>
<polygon fill="midnightblue" stroke="midnightblue" points="54.15,-77.04 43.65,-75.65 51,-83.28 54.15,-77.04"/>
</g>
<!-- Node5 -->
<g id="node5" class="node">
<title>Node5</title>
<g id="a_node5"><a xlink:title=" ">
<polygon fill="none" stroke="#bfbfbf" points="71,-56.5 71,-75.5 124,-75.5 124,-56.5 71,-56.5"/>
<text text-anchor="middle" x="97.5" y="-63.5" font-family="Helvetica,sans-Serif" font-size="10.00">string.h</text>
</a>
</g>
</g>
<!-- Node3&#45;&gt;Node5 -->
<g id="edge4" class="edge">
<title>Node3&#45;&gt;Node5</title>
<path fill="none" stroke="midnightblue" d="M127.56,-112.08C122.52,-104.53 115.16,-93.49 108.99,-84.23"/>
<polygon fill="midnightblue" stroke="midnightblue" points="111.79,-82.13 103.33,-75.75 105.97,-86.01 111.79,-82.13"/>
</g>
<!-- Node6 -->
<g id="node6" class="node">
<title>Node6</title>
<g id="a_node6"><a xlink:href="config_8h_source.html" target="_top" xlink:title=" ">
<polygon fill="none" stroke="black" points="142,-56.5 142,-75.5 197,-75.5 197,-56.5 142,-56.5"/>
<text text-anchor="middle" x="169.5" y="-63.5" font-family="Helvetica,sans-Serif" font-size="10.00">config.h</text>
</a>
</g>
</g>
<!-- Node3&#45;&gt;Node6 -->
<g id="edge5" class="edge">
<title>Node3&#45;&gt;Node6</title>
<path fill="none" stroke="midnightblue" d="M139.44,-112.08C144.48,-104.53 151.84,-93.49 158.01,-84.23"/>
<polygon fill="midnightblue" stroke="midnightblue" points="161.03,-86.01 163.67,-75.75 155.21,-82.13 161.03,-86.01"/>
</g>
<!-- Node8 -->
<g id="node8" class="node">
<title>Node8</title>
<g id="a_node8"><a xlink:title=" ">
<polygon fill="none" stroke="#bfbfbf" points="215.5,-56.5 215.5,-75.5 303.5,-75.5 303.5,-56.5 215.5,-56.5"/>
<text text-anchor="middle" x="259.5" y="-63.5" font-family="Helvetica,sans-Serif" font-size="10.00">platform/cpu.h</text>
</a>
</g>
</g>
<!-- Node3&#45;&gt;Node8 -->
<g id="edge7" class="edge">
<title>Node3&#45;&gt;Node8</title>
<path fill="none" stroke="midnightblue" d="M153.47,-112.44C174.11,-103.6 206.56,-89.69 230.13,-79.59"/>
<polygon fill="midnightblue" stroke="midnightblue" points="231.82,-82.67 239.63,-75.52 229.06,-76.24 231.82,-82.67"/>
</g>
<!-- Node7 -->
<g id="node7" class="node">
<title>Node7</title>
<g id="a_node7"><a xlink:title=" ">
<polygon fill="none" stroke="#bfbfbf" points="129.5,-0.5 129.5,-19.5 209.5,-19.5 209.5,-0.5 129.5,-0.5"/>
<text text-anchor="middle" x="169.5" y="-7.5" font-family="Helvetica,sans-Serif" font-size="10.00">application.h</text>
</a>
</g>
</g>
<!-- Node6&#45;&gt;Node7 -->
<g id="edge6" class="edge">
<title>Node6&#45;&gt;Node7</title>
<path fill="none" stroke="midnightblue" d="M169.5,-56.08C169.5,-49.01 169.5,-38.86 169.5,-29.99"/>
<polygon fill="midnightblue" stroke="midnightblue" points="173,-29.75 169.5,-19.75 166,-29.75 173,-29.75"/>
</g>
</g>
</svg>
