<?xml version="1.0" encoding="UTF-8" standalone="no"?>
<!DOCTYPE svg PUBLIC "-//W3C//DTD SVG 1.1//EN"
 "http://www.w3.org/Graphics/SVG/1.1/DTD/svg11.dtd">
<!-- Generated by graphviz version 2.43.0 (0)
 -->
<!-- Title: time/sync.h Pages: 1 -->
<svg width="172pt" height="84pt"
 viewBox="0.00 0.00 172.00 84.00" xmlns="http://www.w3.org/2000/svg" xmlns:xlink="http://www.w3.org/1999/xlink">
<g id="graph0" class="graph" transform="scale(1 1) rotate(0) translate(4 80)">
<title>time/sync.h</title>
<!-- Node1 -->
<g id="node1" class="node">
<title>Node1</title>
<g id="a_node1"><a xlink:title="Time synchonization functions for embebedded systems.">
<polygon fill="#bfbfbf" stroke="black" points="44.5,-56.5 44.5,-75.5 118.5,-75.5 118.5,-56.5 44.5,-56.5"/>
<text text-anchor="middle" x="81.5" y="-63.5" font-family="Helvetica,sans-Serif" font-size="10.00">time/sync.h</text>
</a>
</g>
</g>
<!-- Node2 -->
<g id="node2" class="node">
<title>Node2</title>
<g id="a_node2"><a xlink:href="sync_8c.html" target="_top" xlink:title="Time synchonization function implementations.">
<polygon fill="none" stroke="black" points="0,-0.5 0,-19.5 73,-19.5 73,-0.5 0,-0.5"/>
<text text-anchor="middle" x="36.5" y="-7.5" font-family="Helvetica,sans-Serif" font-size="10.00">time/sync.c</text>
</a>
</g>
</g>
<!-- Node1&#45;&gt;Node2 -->
<g id="edge1" class="edge">
<title>Node1&#45;&gt;Node2</title>
<path fill="none" stroke="midnightblue" d="M67.45,-48.14C59.61,-38.74 50.17,-27.4 43.79,-19.75"/>
<polygon fill="midnightblue" stroke="midnightblue" points="64.98,-50.64 74.07,-56.08 70.36,-46.16 64.98,-50.64"/>
</g>
<!-- Node3 -->
<g id="node3" class="node">
<title>Node3</title>
<g id="a_node3"><a xlink:href="time_8c.html" target="_top" xlink:title="Time related function implementations.">
<polygon fill="none" stroke="black" points="91,-0.5 91,-19.5 164,-19.5 164,-0.5 91,-0.5"/>
<text text-anchor="middle" x="127.5" y="-7.5" font-family="Helvetica,sans-Serif" font-size="10.00">time/time.c</text>
</a>
</g>
</g>
<!-- Node1&#45;&gt;Node3 -->
<g id="edge2" class="edge">
<title>Node1&#45;&gt;Node3</title>
<path fill="none" stroke="midnightblue" d="M95.61,-48.43C103.68,-38.97 113.46,-27.48 120.05,-19.75"/>
<polygon fill="midnightblue" stroke="midnightblue" points="92.92,-46.2 89.1,-56.08 98.25,-50.74 92.92,-46.2"/>
</g>
</g>
</svg>
