<?xml version="1.0" encoding="UTF-8" standalone="no"?>
<!DOCTYPE svg PUBLIC "-//W3C//DTD SVG 1.1//EN"
 "http://www.w3.org/Graphics/SVG/1.1/DTD/svg11.dtd">
<!-- Generated by graphviz version 2.43.0 (0)
 -->
<!-- Title: time/time.h Pages: 1 -->
<svg width="454pt" height="140pt"
 viewBox="0.00 0.00 454.00 140.00" xmlns="http://www.w3.org/2000/svg" xmlns:xlink="http://www.w3.org/1999/xlink">
<g id="graph0" class="graph" transform="scale(1 1) rotate(0) translate(4 136)">
<title>time/time.h</title>
<!-- Node1 -->
<g id="node1" class="node">
<title>Node1</title>
<g id="a_node1"><a xlink:title="Time related functions for embebedded systems.">
<polygon fill="#bfbfbf" stroke="black" points="188.5,-112.5 188.5,-131.5 262.5,-131.5 262.5,-112.5 188.5,-112.5"/>
<text text-anchor="middle" x="225.5" y="-119.5" font-family="Helvetica,sans-Serif" font-size="10.00">time/time.h</text>
</a>
</g>
</g>
<!-- Node2 -->
<g id="node2" class="node">
<title>Node2</title>
<g id="a_node2"><a xlink:href="cron_8h.html" target="_top" xlink:title="Cron&#45;like scheduling framework for embebedded systems.">
<polygon fill="none" stroke="black" points="60.5,-56.5 60.5,-75.5 132.5,-75.5 132.5,-56.5 60.5,-56.5"/>
<text text-anchor="middle" x="96.5" y="-63.5" font-family="Helvetica,sans-Serif" font-size="10.00">time/cron.h</text>
</a>
</g>
</g>
<!-- Node1&#45;&gt;Node2 -->
<g id="edge1" class="edge">
<title>Node1&#45;&gt;Node2</title>
<path fill="none" stroke="midnightblue" d="M195.65,-108.5C171.46,-98.38 138.04,-84.39 116.84,-75.52"/>
<polygon fill="midnightblue" stroke="midnightblue" points="194.48,-111.81 205.06,-112.44 197.19,-105.35 194.48,-111.81"/>
</g>
<!-- Node4 -->
<g id="node4" class="node">
<title>Node4</title>
<g id="a_node4"><a xlink:href="time_8c.html" target="_top" xlink:title="Time related function implementations.">
<polygon fill="none" stroke="black" points="89,-0.5 89,-19.5 162,-19.5 162,-0.5 89,-0.5"/>
<text text-anchor="middle" x="125.5" y="-7.5" font-family="Helvetica,sans-Serif" font-size="10.00">time/time.c</text>
</a>
</g>
</g>
<!-- Node1&#45;&gt;Node4 -->
<g id="edge10" class="edge">
<title>Node1&#45;&gt;Node4</title>
<path fill="none" stroke="midnightblue" d="M208.59,-105.26C199.71,-96.8 188.78,-86.06 179.5,-76 161.6,-56.58 142.18,-32.34 132.22,-19.65"/>
<polygon fill="midnightblue" stroke="midnightblue" points="206.38,-107.99 216.06,-112.31 211.18,-102.9 206.38,-107.99"/>
</g>
<!-- Node5 -->
<g id="node5" class="node">
<title>Node5</title>
<g id="a_node5"><a xlink:href="sync_8c.html" target="_top" xlink:title="Time synchonization function implementation.">
<polygon fill="none" stroke="black" points="289,-0.5 289,-19.5 362,-19.5 362,-0.5 289,-0.5"/>
<text text-anchor="middle" x="325.5" y="-7.5" font-family="Helvetica,sans-Serif" font-size="10.00">time/sync.c</text>
</a>
</g>
</g>
<!-- Node1&#45;&gt;Node5 -->
<g id="edge4" class="edge">
<title>Node1&#45;&gt;Node5</title>
<path fill="none" stroke="midnightblue" d="M242.41,-105.26C251.29,-96.8 262.22,-86.06 271.5,-76 289.4,-56.58 308.82,-32.34 318.78,-19.65"/>
<polygon fill="midnightblue" stroke="midnightblue" points="239.82,-102.9 234.94,-112.31 244.62,-107.99 239.82,-102.9"/>
</g>
<!-- Node6 -->
<g id="node6" class="node">
<title>Node6</title>
<g id="a_node6"><a xlink:href="sync_8h.html" target="_top" xlink:title="Time synchonization functions for embebedded systems.">
<polygon fill="none" stroke="black" points="188.5,-56.5 188.5,-75.5 262.5,-75.5 262.5,-56.5 188.5,-56.5"/>
<text text-anchor="middle" x="225.5" y="-63.5" font-family="Helvetica,sans-Serif" font-size="10.00">time/sync.h</text>
</a>
</g>
</g>
<!-- Node1&#45;&gt;Node6 -->
<g id="edge5" class="edge">
<title>Node1&#45;&gt;Node6</title>
<path fill="none" stroke="midnightblue" d="M225.5,-101.8C225.5,-92.91 225.5,-82.78 225.5,-75.75"/>
<polygon fill="midnightblue" stroke="midnightblue" points="222,-102.08 225.5,-112.08 229,-102.08 222,-102.08"/>
</g>
<!-- Node8 -->
<g id="node8" class="node">
<title>Node8</title>
<g id="a_node8"><a xlink:href="systick__handler_8h.html" target="_top" xlink:title="Interrupt handler for the system tick for static inclusion in the application.">
<polygon fill="none" stroke="black" points="319,-56.5 319,-75.5 446,-75.5 446,-56.5 319,-56.5"/>
<text text-anchor="middle" x="382.5" y="-63.5" font-family="Helvetica,sans-Serif" font-size="10.00">time/systick_handler.h</text>
</a>
</g>
</g>
<!-- Node1&#45;&gt;Node8 -->
<g id="edge9" class="edge">
<title>Node1&#45;&gt;Node8</title>
<path fill="none" stroke="midnightblue" d="M259.89,-109.17C289.45,-99 331.37,-84.59 357.74,-75.52"/>
<polygon fill="midnightblue" stroke="midnightblue" points="258.7,-105.88 250.38,-112.44 260.97,-112.5 258.7,-105.88"/>
</g>
<!-- Node3 -->
<g id="node3" class="node">
<title>Node3</title>
<g id="a_node3"><a xlink:href="cron_8c.html" target="_top" xlink:title="Cron&#45;like scheduling framework implementations.">
<polygon fill="none" stroke="black" points="0,-0.5 0,-19.5 71,-19.5 71,-0.5 0,-0.5"/>
<text text-anchor="middle" x="35.5" y="-7.5" font-family="Helvetica,sans-Serif" font-size="10.00">time/cron.c</text>
</a>
</g>
</g>
<!-- Node2&#45;&gt;Node3 -->
<g id="edge2" class="edge">
<title>Node2&#45;&gt;Node3</title>
<path fill="none" stroke="midnightblue" d="M79.03,-49.54C68.16,-39.91 54.56,-27.87 45.48,-19.83"/>
<polygon fill="midnightblue" stroke="midnightblue" points="76.89,-52.32 86.7,-56.32 81.53,-47.07 76.89,-52.32"/>
</g>
<!-- Node2&#45;&gt;Node4 -->
<g id="edge3" class="edge">
<title>Node2&#45;&gt;Node4</title>
<path fill="none" stroke="midnightblue" d="M106.18,-46.98C111.1,-37.82 116.86,-27.09 120.8,-19.75"/>
<polygon fill="midnightblue" stroke="midnightblue" points="102.94,-45.62 101.29,-56.08 109.1,-48.93 102.94,-45.62"/>
</g>
<!-- Node6&#45;&gt;Node4 -->
<g id="edge8" class="edge">
<title>Node6&#45;&gt;Node4</title>
<path fill="none" stroke="midnightblue" d="M200.41,-51.45C181.95,-41.48 157.4,-28.23 141.53,-19.65"/>
<polygon fill="midnightblue" stroke="midnightblue" points="198.97,-54.65 209.43,-56.32 202.3,-48.49 198.97,-54.65"/>
</g>
<!-- Node6&#45;&gt;Node5 -->
<g id="edge6" class="edge">
<title>Node6&#45;&gt;Node5</title>
<path fill="none" stroke="midnightblue" d="M250.59,-51.45C269.05,-41.48 293.6,-28.23 309.47,-19.65"/>
<polygon fill="midnightblue" stroke="midnightblue" points="248.7,-48.49 241.57,-56.32 252.03,-54.65 248.7,-48.49"/>
</g>
<!-- Node7 -->
<g id="node7" class="node">
<title>Node7</title>
<g id="a_node7"><a xlink:href="sync__rtc_8c_source.html" target="_top" xlink:title=" ">
<polygon fill="none" stroke="black" points="180,-0.5 180,-19.5 271,-19.5 271,-0.5 180,-0.5"/>
<text text-anchor="middle" x="225.5" y="-7.5" font-family="Helvetica,sans-Serif" font-size="10.00">time/sync_rtc.c</text>
</a>
</g>
</g>
<!-- Node6&#45;&gt;Node7 -->
<g id="edge7" class="edge">
<title>Node6&#45;&gt;Node7</title>
<path fill="none" stroke="midnightblue" d="M225.5,-45.8C225.5,-36.91 225.5,-26.78 225.5,-19.75"/>
<polygon fill="midnightblue" stroke="midnightblue" points="222,-46.08 225.5,-56.08 229,-46.08 222,-46.08"/>
</g>
</g>
</svg>
