<?xml version="1.0" encoding="UTF-8" standalone="no"?>
<!DOCTYPE svg PUBLIC "-//W3C//DTD SVG 1.1//EN"
 "http://www.w3.org/Graphics/SVG/1.1/DTD/svg11.dtd">
<!-- Generated by graphviz version 2.43.0 (0)
 -->
<!-- Title: time/time.c Pages: 1 -->
<svg width="669pt" height="252pt"
 viewBox="0.00 0.00 668.50 252.00" xmlns="http://www.w3.org/2000/svg" xmlns:xlink="http://www.w3.org/1999/xlink">
<g id="graph0" class="graph" transform="scale(1 1) rotate(0) translate(4 248)">
<title>time/time.c</title>
<!-- Node1 -->
<g id="node1" class="node">
<title>Node1</title>
<g id="a_node1"><a xlink:title="Time related function implementations.">
<polygon fill="#bfbfbf" stroke="black" points="346.5,-224.5 346.5,-243.5 419.5,-243.5 419.5,-224.5 346.5,-224.5"/>
<text text-anchor="middle" x="383" y="-231.5" font-family="Helvetica,sans-Serif" font-size="10.00">time/time.c</text>
</a>
</g>
</g>
<!-- Node2 -->
<g id="node2" class="node">
<title>Node2</title>
<g id="a_node2"><a xlink:title=" ">
<polygon fill="none" stroke="#bfbfbf" points="0,-168.5 0,-187.5 50,-187.5 50,-168.5 0,-168.5"/>
<text text-anchor="middle" x="25" y="-175.5" font-family="Helvetica,sans-Serif" font-size="10.00">stdio.h</text>
</a>
</g>
</g>
<!-- Node1&#45;&gt;Node2 -->
<g id="edge1" class="edge">
<title>Node1&#45;&gt;Node2</title>
<path fill="none" stroke="midnightblue" d="M346.32,-229.37C287.77,-223.25 169.47,-209.59 60.05,-188"/>
<polygon fill="midnightblue" stroke="midnightblue" points="60.66,-184.56 50.17,-186.03 59.29,-191.42 60.66,-184.56"/>
</g>
<!-- Node3 -->
<g id="node3" class="node">
<title>Node3</title>
<g id="a_node3"><a xlink:title=" ">
<polygon fill="none" stroke="#bfbfbf" points="68.5,-168.5 68.5,-187.5 131.5,-187.5 131.5,-168.5 68.5,-168.5"/>
<text text-anchor="middle" x="100" y="-175.5" font-family="Helvetica,sans-Serif" font-size="10.00">ds/sllist.h</text>
</a>
</g>
</g>
<!-- Node1&#45;&gt;Node3 -->
<g id="edge2" class="edge">
<title>Node1&#45;&gt;Node3</title>
<path fill="none" stroke="midnightblue" d="M346.28,-226.65C300.57,-218.65 219.89,-204.2 141.85,-188.33"/>
<polygon fill="midnightblue" stroke="midnightblue" points="142.35,-184.86 131.85,-186.28 140.95,-191.71 142.35,-184.86"/>
</g>
<!-- Node4 -->
<g id="node4" class="node">
<title>Node4</title>
<g id="a_node4"><a xlink:title=" ">
<polygon fill="none" stroke="#bfbfbf" points="149.5,-168.5 149.5,-187.5 232.5,-187.5 232.5,-168.5 149.5,-168.5"/>
<text text-anchor="middle" x="191" y="-175.5" font-family="Helvetica,sans-Serif" font-size="10.00">ucdm/ucdm.h</text>
</a>
</g>
</g>
<!-- Node1&#45;&gt;Node4 -->
<g id="edge3" class="edge">
<title>Node1&#45;&gt;Node4</title>
<path fill="none" stroke="midnightblue" d="M352.58,-224.44C319.72,-215.2 267.22,-200.44 231.03,-190.26"/>
<polygon fill="midnightblue" stroke="midnightblue" points="231.85,-186.85 221.28,-187.52 229.96,-193.59 231.85,-186.85"/>
</g>
<!-- Node5 -->
<g id="node5" class="node">
<title>Node5</title>
<g id="a_node5"><a xlink:title=" ">
<polygon fill="none" stroke="#bfbfbf" points="251,-168.5 251,-187.5 355,-187.5 355,-168.5 251,-168.5"/>
<text text-anchor="middle" x="303" y="-175.5" font-family="Helvetica,sans-Serif" font-size="10.00">ucdm/descriptor.h</text>
</a>
</g>
</g>
<!-- Node1&#45;&gt;Node5 -->
<g id="edge4" class="edge">
<title>Node1&#45;&gt;Node5</title>
<path fill="none" stroke="midnightblue" d="M370.15,-224.32C357.78,-215.98 338.87,-203.21 324.26,-193.35"/>
<polygon fill="midnightblue" stroke="midnightblue" points="326.07,-190.35 315.82,-187.65 322.15,-196.15 326.07,-190.35"/>
</g>
<!-- Node6 -->
<g id="node6" class="node">
<title>Node6</title>
<g id="a_node6"><a xlink:title=" ">
<polygon fill="none" stroke="#bfbfbf" points="357.5,-56.5 357.5,-75.5 410.5,-75.5 410.5,-56.5 357.5,-56.5"/>
<text text-anchor="middle" x="384" y="-63.5" font-family="Helvetica,sans-Serif" font-size="10.00">string.h</text>
</a>
</g>
</g>
<!-- Node1&#45;&gt;Node6 -->
<g id="edge5" class="edge">
<title>Node1&#45;&gt;Node6</title>
<path fill="none" stroke="midnightblue" d="M383.05,-224.08C383.21,-197.95 383.67,-121.21 383.89,-85.58"/>
<polygon fill="midnightblue" stroke="midnightblue" points="387.39,-85.59 383.95,-75.57 380.39,-85.55 387.39,-85.59"/>
</g>
<!-- Node7 -->
<g id="node7" class="node">
<title>Node7</title>
<g id="a_node7"><a xlink:href="time_8h.html" target="_top" xlink:title="Time related functions for embebedded systems.">
<polygon fill="none" stroke="black" points="522,-112.5 522,-131.5 570,-131.5 570,-112.5 522,-112.5"/>
<text text-anchor="middle" x="546" y="-119.5" font-family="Helvetica,sans-Serif" font-size="10.00">time.h</text>
</a>
</g>
</g>
<!-- Node1&#45;&gt;Node7 -->
<g id="edge6" class="edge">
<title>Node1&#45;&gt;Node7</title>
<path fill="none" stroke="midnightblue" d="M419.57,-228.07C462.78,-221.42 530.75,-208.03 546,-188 555.92,-174.96 554.59,-155.81 551.58,-141.67"/>
<polygon fill="midnightblue" stroke="midnightblue" points="554.87,-140.42 548.98,-131.61 548.09,-142.17 554.87,-140.42"/>
</g>
<!-- Node12 -->
<g id="node12" class="node">
<title>Node12</title>
<g id="a_node12"><a xlink:href="systick_8h_source.html" target="_top" xlink:title=" ">
<polygon fill="none" stroke="black" points="477,-168.5 477,-187.5 537,-187.5 537,-168.5 477,-168.5"/>
<text text-anchor="middle" x="507" y="-175.5" font-family="Helvetica,sans-Serif" font-size="10.00">systick.h</text>
</a>
</g>
</g>
<!-- Node1&#45;&gt;Node12 -->
<g id="edge12" class="edge">
<title>Node1&#45;&gt;Node12</title>
<path fill="none" stroke="midnightblue" d="M402.65,-224.44C422.96,-215.6 454.9,-201.69 478.1,-191.59"/>
<polygon fill="midnightblue" stroke="midnightblue" points="479.67,-194.72 487.44,-187.52 476.88,-188.3 479.67,-194.72"/>
</g>
<!-- Node13 -->
<g id="node13" class="node">
<title>Node13</title>
<g id="a_node13"><a xlink:href="sync_8h.html" target="_top" xlink:title="Time synchonization functions for embebedded systems.">
<polygon fill="none" stroke="black" points="411,-168.5 411,-187.5 459,-187.5 459,-168.5 411,-168.5"/>
<text text-anchor="middle" x="435" y="-175.5" font-family="Helvetica,sans-Serif" font-size="10.00">sync.h</text>
</a>
</g>
</g>
<!-- Node1&#45;&gt;Node13 -->
<g id="edge13" class="edge">
<title>Node1&#45;&gt;Node13</title>
<path fill="none" stroke="midnightblue" d="M391.59,-224.08C399.16,-216.22 410.38,-204.57 419.51,-195.08"/>
<polygon fill="midnightblue" stroke="midnightblue" points="422.16,-197.38 426.57,-187.75 417.12,-192.53 422.16,-197.38"/>
</g>
<!-- Node15 -->
<g id="node15" class="node">
<title>Node15</title>
<g id="a_node15"><a xlink:href="cron_8h.html" target="_top" xlink:title="Cron&#45;like scheduling framework for embebedded systems.">
<polygon fill="none" stroke="black" points="593.5,-168.5 593.5,-187.5 640.5,-187.5 640.5,-168.5 593.5,-168.5"/>
<text text-anchor="middle" x="617" y="-175.5" font-family="Helvetica,sans-Serif" font-size="10.00">cron.h</text>
</a>
</g>
</g>
<!-- Node1&#45;&gt;Node15 -->
<g id="edge16" class="edge">
<title>Node1&#45;&gt;Node15</title>
<path fill="none" stroke="midnightblue" d="M419.5,-224.7C458.88,-215.72 523.41,-200.96 579,-188 580.44,-187.66 581.92,-187.32 583.41,-186.97"/>
<polygon fill="midnightblue" stroke="midnightblue" points="584.36,-190.34 593.29,-184.64 582.75,-183.53 584.36,-190.34"/>
</g>
<!-- Node7&#45;&gt;Node6 -->
<g id="edge8" class="edge">
<title>Node7&#45;&gt;Node6</title>
<path fill="none" stroke="midnightblue" d="M521.75,-112.92C494.59,-103.86 450.32,-89.11 419.32,-78.77"/>
<polygon fill="midnightblue" stroke="midnightblue" points="420.35,-75.43 409.76,-75.59 418.14,-82.07 420.35,-75.43"/>
</g>
<!-- Node8 -->
<g id="node8" class="node">
<title>Node8</title>
<g id="a_node8"><a xlink:title=" ">
<polygon fill="none" stroke="#bfbfbf" points="607.5,-56.5 607.5,-75.5 660.5,-75.5 660.5,-56.5 607.5,-56.5"/>
<text text-anchor="middle" x="634" y="-63.5" font-family="Helvetica,sans-Serif" font-size="10.00">stdint.h</text>
</a>
</g>
</g>
<!-- Node7&#45;&gt;Node8 -->
<g id="edge7" class="edge">
<title>Node7&#45;&gt;Node8</title>
<path fill="none" stroke="midnightblue" d="M560.14,-112.32C573.87,-103.9 594.94,-90.97 611.06,-81.07"/>
<polygon fill="midnightblue" stroke="midnightblue" points="613.2,-83.87 619.9,-75.65 609.54,-77.9 613.2,-83.87"/>
</g>
<!-- Node9 -->
<g id="node9" class="node">
<title>Node9</title>
<g id="a_node9"><a xlink:href="config_8h_source.html" target="_top" xlink:title=" ">
<polygon fill="none" stroke="black" points="428.5,-56.5 428.5,-75.5 483.5,-75.5 483.5,-56.5 428.5,-56.5"/>
<text text-anchor="middle" x="456" y="-63.5" font-family="Helvetica,sans-Serif" font-size="10.00">config.h</text>
</a>
</g>
</g>
<!-- Node7&#45;&gt;Node9 -->
<g id="edge9" class="edge">
<title>Node7&#45;&gt;Node9</title>
<path fill="none" stroke="midnightblue" d="M531.54,-112.32C517.5,-103.9 495.95,-90.97 479.46,-81.07"/>
<polygon fill="midnightblue" stroke="midnightblue" points="480.8,-77.8 470.42,-75.65 477.2,-83.8 480.8,-77.8"/>
</g>
<!-- Node11 -->
<g id="node11" class="node">
<title>Node11</title>
<g id="a_node11"><a xlink:title=" ">
<polygon fill="none" stroke="#bfbfbf" points="502,-56.5 502,-75.5 590,-75.5 590,-56.5 502,-56.5"/>
<text text-anchor="middle" x="546" y="-63.5" font-family="Helvetica,sans-Serif" font-size="10.00">platform/cpu.h</text>
</a>
</g>
</g>
<!-- Node7&#45;&gt;Node11 -->
<g id="edge11" class="edge">
<title>Node7&#45;&gt;Node11</title>
<path fill="none" stroke="midnightblue" d="M546,-112.08C546,-105.01 546,-94.86 546,-85.99"/>
<polygon fill="midnightblue" stroke="midnightblue" points="549.5,-85.75 546,-75.75 542.5,-85.75 549.5,-85.75"/>
</g>
<!-- Node10 -->
<g id="node10" class="node">
<title>Node10</title>
<g id="a_node10"><a xlink:title=" ">
<polygon fill="none" stroke="#bfbfbf" points="416,-0.5 416,-19.5 496,-19.5 496,-0.5 416,-0.5"/>
<text text-anchor="middle" x="456" y="-7.5" font-family="Helvetica,sans-Serif" font-size="10.00">application.h</text>
</a>
</g>
</g>
<!-- Node9&#45;&gt;Node10 -->
<g id="edge10" class="edge">
<title>Node9&#45;&gt;Node10</title>
<path fill="none" stroke="midnightblue" d="M456,-56.08C456,-49.01 456,-38.86 456,-29.99"/>
<polygon fill="midnightblue" stroke="midnightblue" points="459.5,-29.75 456,-19.75 452.5,-29.75 459.5,-29.75"/>
</g>
<!-- Node13&#45;&gt;Node7 -->
<g id="edge15" class="edge">
<title>Node13&#45;&gt;Node7</title>
<path fill="none" stroke="midnightblue" d="M452.83,-168.32C470.72,-159.62 498.48,-146.12 519.05,-136.11"/>
<polygon fill="midnightblue" stroke="midnightblue" points="520.75,-139.18 528.21,-131.65 517.69,-132.88 520.75,-139.18"/>
</g>
<!-- Node14 -->
<g id="node14" class="node">
<title>Node14</title>
<g id="a_node14"><a xlink:title=" ">
<polygon fill="none" stroke="#bfbfbf" points="411,-112.5 411,-131.5 485,-131.5 485,-112.5 411,-112.5"/>
<text text-anchor="middle" x="448" y="-119.5" font-family="Helvetica,sans-Serif" font-size="10.00">ds/avltree.h</text>
</a>
</g>
</g>
<!-- Node13&#45;&gt;Node14 -->
<g id="edge14" class="edge">
<title>Node13&#45;&gt;Node14</title>
<path fill="none" stroke="midnightblue" d="M437.15,-168.08C438.87,-160.93 441.35,-150.64 443.5,-141.69"/>
<polygon fill="midnightblue" stroke="midnightblue" points="446.96,-142.29 445.89,-131.75 440.15,-140.65 446.96,-142.29"/>
</g>
<!-- Node15&#45;&gt;Node7 -->
<g id="edge18" class="edge">
<title>Node15&#45;&gt;Node7</title>
<path fill="none" stroke="midnightblue" d="M605.59,-168.32C594.89,-160.18 578.66,-147.84 565.84,-138.09"/>
<polygon fill="midnightblue" stroke="midnightblue" points="567.69,-135.1 557.61,-131.83 563.46,-140.67 567.69,-135.1"/>
</g>
<!-- Node16 -->
<g id="node16" class="node">
<title>Node16</title>
<g id="a_node16"><a xlink:title=" ">
<polygon fill="none" stroke="#bfbfbf" points="589,-112.5 589,-131.5 645,-131.5 645,-112.5 589,-112.5"/>
<text text-anchor="middle" x="617" y="-119.5" font-family="Helvetica,sans-Serif" font-size="10.00">stddef.h</text>
</a>
</g>
</g>
<!-- Node15&#45;&gt;Node16 -->
<g id="edge17" class="edge">
<title>Node15&#45;&gt;Node16</title>
<path fill="none" stroke="midnightblue" d="M617,-168.08C617,-161.01 617,-150.86 617,-141.99"/>
<polygon fill="midnightblue" stroke="midnightblue" points="620.5,-141.75 617,-131.75 613.5,-141.75 620.5,-141.75"/>
</g>
</g>
</svg>
