<?xml version="1.0" encoding="UTF-8" standalone="no"?>
<!DOCTYPE svg PUBLIC "-//W3C//DTD SVG 1.1//EN"
 "http://www.w3.org/Graphics/SVG/1.1/DTD/svg11.dtd">
<!-- Generated by graphviz version 2.43.0 (0)
 -->
<!-- Title: tm_set_epoch Pages: 1 -->
<svg width="337pt" height="212pt"
 viewBox="0.00 0.00 337.00 212.00" xmlns="http://www.w3.org/2000/svg" xmlns:xlink="http://www.w3.org/1999/xlink">

<svg id="main" version="1.1" xmlns="http://www.w3.org/2000/svg" xmlns:xlink="http://www.w3.org/1999/xlink" xml:space="preserve" onload="init(evt)">
<style type="text/css"><![CDATA[
.node, .edge {opacity: 0.7;}
.node.selected, .edge.selected {opacity: 1;}
.edge:hover path { stroke: red; }
.edge:hover polygon { stroke: red; fill: red; }
]]></style>
<script type="application/ecmascript" xlink:href="svg.min.js"/>
<svg id="graph" class="graph">
<g id="graph0" class="graph" transform="scale(1 1) rotate(0) translate(4 208)">
<title>tm_set_epoch</title>
<!-- Node1 -->
<g id="Node000001" class="node">
<title>Node1</title>
<g id="a_Node000001"><a xlink:title="Set the epoch time from an external real time source.">
<polygon fill="#999999" stroke="#666666" points="85,-111 0,-111 0,-92 85,-92 85,-111"/>
<text text-anchor="middle" x="42.5" y="-99" font-family="Helvetica,sans-Serif" font-size="10.00">tm_set_epoch</text>
</a>
</g>
</g>
<!-- Node2 -->
<g id="Node000002" class="node">
<title>Node2</title>
<g id="a_Node000002"><a xlink:href="time_8h.html#a020bc3b6a0701a332d55523b44d837ae" target="_top" xlink:title="Apply a time difference to a time in system time.">
<polygon fill="white" stroke="#666666" points="234,-204 136,-204 136,-185 234,-185 234,-204"/>
<text text-anchor="middle" x="185" y="-192" font-family="Helvetica,sans-Serif" font-size="10.00">tm_apply_sdelta</text>
</a>
</g>
</g>
<!-- Node1&#45;&gt;Node2 -->
<g id="edge1_Node000001_Node000002" class="edge">
<title>Node1&#45;&gt;Node2</title>
<g id="a_edge1_Node000001_Node000002"><a xlink:title=" ">
<path fill="none" stroke="#63b8ff" d="M50.75,-111.09C63.3,-127.04 90.68,-158.99 121,-176.5 124,-178.23 127.17,-179.8 130.44,-181.23"/>
<polygon fill="#63b8ff" stroke="#63b8ff" points="129.23,-184.52 139.82,-184.89 131.78,-178 129.23,-184.52"/>
</a>
</g>
</g>
<!-- Node3 -->
<g id="Node000003" class="node">
<title>Node3</title>
<g id="a_Node000003"><a xlink:href="time_8c.html#a00a5692ee3a8cab2cb079ce7e2c8c5e3" target="_top" xlink:title="Clear a tm_sdelta_t instance.">
<polygon fill="white" stroke="#666666" points="232.5,-167 137.5,-167 137.5,-148 232.5,-148 232.5,-167"/>
<text text-anchor="middle" x="185" y="-155" font-family="Helvetica,sans-Serif" font-size="10.00">tm_clear_sdelta</text>
</a>
</g>
</g>
<!-- Node1&#45;&gt;Node3 -->
<g id="edge2_Node000001_Node000003" class="edge">
<title>Node1&#45;&gt;Node3</title>
<g id="a_edge2_Node000001_Node000003"><a xlink:title=" ">
<path fill="none" stroke="#63b8ff" d="M60.65,-111.01C76.1,-119.31 99.6,-131.27 121,-139.5 126.04,-141.44 131.38,-143.28 136.74,-144.99"/>
<polygon fill="#63b8ff" stroke="#63b8ff" points="135.74,-148.34 146.33,-147.92 137.79,-141.65 135.74,-148.34"/>
</a>
</g>
</g>
<!-- Node4 -->
<g id="Node000004" class="node">
<title>Node4</title>
<g id="a_Node000004"><a xlink:href="time_8c.html#a80e742cf4d5a15aa405e271532631cb7" target="_top" xlink:title="Clear a tm_system_t instance.">
<polygon fill="white" stroke="#666666" points="231,-130 139,-130 139,-111 231,-111 231,-130"/>
<text text-anchor="middle" x="185" y="-118" font-family="Helvetica,sans-Serif" font-size="10.00">tm_clear_stime</text>
</a>
</g>
</g>
<!-- Node1&#45;&gt;Node4 -->
<g id="edge3_Node000001_Node000004" class="edge">
<title>Node1&#45;&gt;Node4</title>
<g id="a_edge3_Node000001_Node000004"><a xlink:title=" ">
<path fill="none" stroke="#63b8ff" d="M85.27,-107.15C98.81,-108.98 114.05,-111.04 128.43,-112.99"/>
<polygon fill="#63b8ff" stroke="#63b8ff" points="128.33,-116.5 138.71,-114.38 129.27,-109.57 128.33,-116.5"/>
</a>
</g>
</g>
<!-- Node5 -->
<g id="Node000005" class="node">
<title>Node5</title>
<g id="a_Node000005"><a xlink:href="time_8h.html#a006383f294822e9ac3115800060d1b8e" target="_top" xlink:title="Get the difference between two system times as a system time delta (t2 &#45; t1)">
<polygon fill="white" stroke="#666666" points="228,-93 142,-93 142,-74 228,-74 228,-93"/>
<text text-anchor="middle" x="185" y="-81" font-family="Helvetica,sans-Serif" font-size="10.00">tm_get_sdelta</text>
</a>
</g>
</g>
<!-- Node1&#45;&gt;Node5 -->
<g id="edge4_Node000001_Node000005" class="edge">
<title>Node1&#45;&gt;Node5</title>
<g id="a_edge4_Node000001_Node000005"><a xlink:title=" ">
<path fill="none" stroke="#63b8ff" d="M85.27,-96.15C99.73,-94.3 116.13,-92.2 131.35,-90.25"/>
<polygon fill="#63b8ff" stroke="#63b8ff" points="132.18,-93.67 141.66,-88.92 131.29,-86.72 132.18,-93.67"/>
</a>
</g>
</g>
<!-- Node6 -->
<g id="Node000006" class="node">
<title>Node6</title>
<g id="a_Node000006"><a xlink:href="time_8c.html#acc311702473d2c6414de107863fc6148" target="_top" xlink:title=" ">
<polygon fill="white" stroke="#666666" points="249,-56 121,-56 121,-37 249,-37 249,-56"/>
<text text-anchor="middle" x="185" y="-44" font-family="Helvetica,sans-Serif" font-size="10.00">tm_set_internal_epoch</text>
</a>
</g>
</g>
<!-- Node1&#45;&gt;Node6 -->
<g id="edge5_Node000001_Node000006" class="edge">
<title>Node1&#45;&gt;Node6</title>
<g id="a_edge5_Node000001_Node000006"><a xlink:title=" ">
<path fill="none" stroke="#63b8ff" d="M62.29,-91.86C77.78,-84.13 100.48,-73.31 121,-65.5 126.89,-63.26 133.16,-61.1 139.38,-59.1"/>
<polygon fill="#63b8ff" stroke="#63b8ff" points="140.54,-62.4 149.04,-56.08 138.45,-55.72 140.54,-62.4"/>
</a>
</g>
</g>
<!-- Node7 -->
<g id="Node000007" class="node">
<title>Node7</title>
<g id="a_Node000007"><a xlink:href="time_8c.html#adcd940fe0a1b12b1a0c47e857bc91b6e" target="_top" xlink:title="Get a system timestamp from a real time, against the current epoch.">
<polygon fill="white" stroke="#666666" points="246.5,-19 123.5,-19 123.5,0 246.5,0 246.5,-19"/>
<text text-anchor="middle" x="185" y="-7" font-family="Helvetica,sans-Serif" font-size="10.00">tm_stime_from_rtime</text>
</a>
</g>
</g>
<!-- Node1&#45;&gt;Node7 -->
<g id="edge6_Node000001_Node000007" class="edge">
<title>Node1&#45;&gt;Node7</title>
<g id="a_edge6_Node000001_Node000007"><a xlink:title=" ">
<path fill="none" stroke="#63b8ff" d="M51.04,-91.97C63.81,-76.45 91.24,-45.71 121,-28.5 124.73,-26.34 128.72,-24.41 132.83,-22.68"/>
<polygon fill="#63b8ff" stroke="#63b8ff" points="134.41,-25.83 142.52,-19.01 131.93,-19.28 134.41,-25.83"/>
</a>
</g>
</g>
<!-- Node8 -->
<g id="Node000008" class="node">
<title>Node8</title>
<g id="a_Node000008"><a xlink:href="time_8c.html#aba7781d07224c57d92365ae80f69421a" target="_top" xlink:title=" ">
<polygon fill="white" stroke="#666666" points="329,-19 285,-19 285,0 329,0 329,-19"/>
<text text-anchor="middle" x="307" y="-7" font-family="Helvetica,sans-Serif" font-size="10.00">gyear</text>
</a>
</g>
</g>
<!-- Node7&#45;&gt;Node8 -->
<g id="edge7_Node000007_Node000008" class="edge">
<title>Node7&#45;&gt;Node8</title>
<g id="a_edge7_Node000007_Node000008"><a xlink:title=" ">
<path fill="none" stroke="#63b8ff" d="M246.7,-9.5C256.35,-9.5 265.97,-9.5 274.57,-9.5"/>
<polygon fill="#63b8ff" stroke="#63b8ff" points="274.84,-13 284.84,-9.5 274.84,-6 274.84,-13"/>
</a>
</g>
</g>
</g>
</svg>
</svg>

<style type='text/css'>
<![CDATA[
[data-mouse-over-selected='false'] { opacity: 0.7; }
[data-mouse-over-selected='true']  { opacity: 1.0; }
]]>
</style>
<script type="application/ecmascript"><![CDATA[
document.addEventListener('DOMContentLoaded', (event) => {
  highlightEdges();
  highlightAdjacentNodes();
});
]]></script>
</svg>
