<?xml version="1.0" encoding="UTF-8" standalone="no"?>
<!DOCTYPE svg PUBLIC "-//W3C//DTD SVG 1.1//EN"
 "http://www.w3.org/Graphics/SVG/1.1/DTD/svg11.dtd">
<!-- Generated by graphviz version 2.43.0 (0)
 -->
<!-- Title: tm_init Pages: 1 -->
<svg width="398pt" height="107pt"
 viewBox="0.00 0.00 398.00 106.50" xmlns="http://www.w3.org/2000/svg" xmlns:xlink="http://www.w3.org/1999/xlink">
<g id="graph0" class="graph" transform="scale(1 1) rotate(0) translate(4 102.5)">
<title>tm_init</title>
<!-- Node1 -->
<g id="Node000001" class="node">
<title>Node1</title>
<g id="a_Node000001"><a xlink:title="Intitialize time library constructs.">
<polygon fill="#999999" stroke="#666666" points="51,-56 0,-56 0,-37 51,-37 51,-56"/>
<text text-anchor="middle" x="25.5" y="-44" font-family="Helvetica,sans-Serif" font-size="10.00">tm_init</text>
</a>
</g>
</g>
<!-- Node2 -->
<g id="Node000002" class="node">
<title>Node2</title>
<g id="a_Node000002"><a xlink:href="cron_8c.html#a11dc7bae47b8fb891f0af6d3f95677b3" target="_top" xlink:title=" ">
<polygon fill="white" stroke="#666666" points="185,-93 108,-93 108,-74 185,-74 185,-93"/>
<text text-anchor="middle" x="146.5" y="-81" font-family="Helvetica,sans-Serif" font-size="10.00">tm_cron_init</text>
</a>
</g>
</g>
<!-- Node1&#45;&gt;Node2 -->
<g id="edge1_Node000001_Node000002" class="edge">
<title>Node1&#45;&gt;Node2</title>
<g id="a_edge1_Node000001_Node000002"><a xlink:title=" ">
<path fill="none" stroke="#63b8ff" d="M51.22,-54.3C62.17,-57.75 75.23,-61.84 87,-65.5 92.66,-67.26 98.62,-69.1 104.49,-70.92"/>
<polygon fill="#63b8ff" stroke="#63b8ff" points="103.63,-74.31 114.22,-73.91 105.69,-67.62 103.63,-74.31"/>
</a>
</g>
</g>
<!-- Node4 -->
<g id="Node000004" class="node">
<title>Node4</title>
<g id="a_Node000004"><a xlink:href="time_8h.html#ae649a29fbd008c16730d843b6da0a7fc" target="_top" xlink:title="Install the time library descriptor to the application.">
<polygon fill="white" stroke="#666666" points="206,-56 87,-56 87,-37 206,-37 206,-56"/>
<text text-anchor="middle" x="146.5" y="-44" font-family="Helvetica,sans-Serif" font-size="10.00">tm_install_descriptor</text>
</a>
</g>
</g>
<!-- Node1&#45;&gt;Node4 -->
<g id="edge3_Node000001_Node000004" class="edge">
<title>Node1&#45;&gt;Node4</title>
<g id="a_edge3_Node000001_Node000004"><a xlink:title=" ">
<path fill="none" stroke="#63b8ff" d="M51.16,-46.5C58.68,-46.5 67.34,-46.5 76.31,-46.5"/>
<polygon fill="#63b8ff" stroke="#63b8ff" points="76.51,-50 86.51,-46.5 76.51,-43 76.51,-50"/>
</a>
</g>
</g>
<!-- Node5 -->
<g id="Node000005" class="node">
<title>Node5</title>
<g id="a_Node000005"><a xlink:href="systick_8c.html#a88c5b5393b5a88384a80b04ae1c63d75" target="_top" xlink:title=" ">
<polygon fill="white" stroke="#666666" points="192,-19 101,-19 101,0 192,0 192,-19"/>
<text text-anchor="middle" x="146.5" y="-7" font-family="Helvetica,sans-Serif" font-size="10.00">tm_systick_init</text>
</a>
</g>
</g>
<!-- Node1&#45;&gt;Node5 -->
<g id="edge4_Node000001_Node000005" class="edge">
<title>Node1&#45;&gt;Node5</title>
<g id="a_edge4_Node000001_Node000005"><a xlink:title=" ">
<path fill="none" stroke="#63b8ff" d="M51.16,-38.83C66.67,-34.01 87.05,-27.67 104.9,-22.12"/>
<polygon fill="#63b8ff" stroke="#63b8ff" points="106,-25.45 114.51,-19.13 103.93,-18.76 106,-25.45"/>
</a>
</g>
</g>
<!-- Node3 -->
<g id="Node000003" class="node">
<title>Node3</title>
<g id="a_Node000003"><a xlink:href="time_8c.html#a542af40054156e483d8394af15fc0ac4" target="_top" xlink:title="Register a callback for changes to the epoch.">
<polygon fill="white" stroke="#666666" points="390,-98.5 242,-98.5 242,-68.5 390,-68.5 390,-98.5"/>
<text text-anchor="start" x="250" y="-86.5" font-family="Helvetica,sans-Serif" font-size="10.00">tm_register_epoch_change</text>
<text text-anchor="middle" x="316" y="-75.5" font-family="Helvetica,sans-Serif" font-size="10.00">_handler</text>
</a>
</g>
</g>
<!-- Node2&#45;&gt;Node3 -->
<g id="edge2_Node000002_Node000003" class="edge">
<title>Node2&#45;&gt;Node3</title>
<g id="a_edge2_Node000002_Node000003"><a xlink:title=" ">
<path fill="none" stroke="#63b8ff" d="M185.09,-83.5C198.99,-83.5 215.35,-83.5 231.7,-83.5"/>
<polygon fill="#63b8ff" stroke="#63b8ff" points="231.85,-87 241.85,-83.5 231.85,-80 231.85,-87"/>
</a>
</g>
</g>
</g>
</svg>
