<?xml version="1.0" encoding="UTF-8" standalone="no"?>
<!DOCTYPE svg PUBLIC "-//W3C//DTD SVG 1.1//EN"
 "http://www.w3.org/Graphics/SVG/1.1/DTD/svg11.dtd">
<!-- Generated by graphviz version 2.43.0 (0)
 -->
<!-- Title: gyear Pages: 1 -->
<svg width="332pt" height="64pt"
 viewBox="0.00 0.00 332.00 64.00" xmlns="http://www.w3.org/2000/svg" xmlns:xlink="http://www.w3.org/1999/xlink">
<g id="graph0" class="graph" transform="scale(1 1) rotate(0) translate(4 60)">
<title>gyear</title>
<!-- Node1 -->
<g id="Node000001" class="node">
<title>Node1</title>
<g id="a_Node000001"><a xlink:title=" ">
<polygon fill="#999999" stroke="#666666" points="324,-37 280,-37 280,-18 324,-18 324,-37"/>
<text text-anchor="middle" x="302" y="-25" font-family="Helvetica,sans-Serif" font-size="10.00">gyear</text>
</a>
</g>
</g>
<!-- Node2 -->
<g id="Node000002" class="node">
<title>Node2</title>
<g id="a_Node000002"><a xlink:href="time_8c.html#a52c2bf43c04d5a8da41bbc4de13594e5" target="_top" xlink:title="Get the real time from a system timestamp against the current epoch.">
<polygon fill="white" stroke="#666666" points="244,-56 121,-56 121,-37 244,-37 244,-56"/>
<text text-anchor="middle" x="182.5" y="-44" font-family="Helvetica,sans-Serif" font-size="10.00">tm_rtime_from_stime</text>
</a>
</g>
</g>
<!-- Node1&#45;&gt;Node2 -->
<g id="edge1_Node000001_Node000002" class="edge">
<title>Node1&#45;&gt;Node2</title>
<g id="a_edge1_Node000001_Node000002"><a xlink:title=" ">
<path fill="none" stroke="#63b8ff" d="M269.85,-32.54C261.36,-33.91 251.87,-35.44 242.39,-36.98"/>
<polygon fill="#63b8ff" stroke="#63b8ff" points="270.68,-35.95 279.99,-30.9 269.56,-29.04 270.68,-35.95"/>
</a>
</g>
</g>
<!-- Node3 -->
<g id="Node000003" class="node">
<title>Node3</title>
<g id="a_Node000003"><a xlink:href="time_8c.html#adcd940fe0a1b12b1a0c47e857bc91b6e" target="_top" xlink:title="Get a system timestamp from a real time, against the current epoch.">
<polygon fill="white" stroke="#666666" points="244,-19 121,-19 121,0 244,0 244,-19"/>
<text text-anchor="middle" x="182.5" y="-7" font-family="Helvetica,sans-Serif" font-size="10.00">tm_stime_from_rtime</text>
</a>
</g>
</g>
<!-- Node1&#45;&gt;Node3 -->
<g id="edge2_Node000001_Node000003" class="edge">
<title>Node1&#45;&gt;Node3</title>
<g id="a_edge2_Node000001_Node000003"><a xlink:title=" ">
<path fill="none" stroke="#63b8ff" d="M270.04,-22.76C262.03,-21.53 253.12,-20.16 244.15,-18.79"/>
<polygon fill="#63b8ff" stroke="#63b8ff" points="269.58,-26.23 279.99,-24.28 270.64,-19.31 269.58,-26.23"/>
</a>
</g>
</g>
<!-- Node4 -->
<g id="Node000004" class="node">
<title>Node4</title>
<g id="a_Node000004"><a xlink:href="time_8c.html#a6a189a7f4cdf84e3f061bb309203fb50" target="_top" xlink:title="Set the epoch time from an external real time source.">
<polygon fill="white" stroke="#666666" points="85,-19 0,-19 0,0 85,0 85,-19"/>
<text text-anchor="middle" x="42.5" y="-7" font-family="Helvetica,sans-Serif" font-size="10.00">tm_set_epoch</text>
</a>
</g>
</g>
<!-- Node3&#45;&gt;Node4 -->
<g id="edge3_Node000003_Node000004" class="edge">
<title>Node3&#45;&gt;Node4</title>
<g id="a_edge3_Node000003_Node000004"><a xlink:title=" ">
<path fill="none" stroke="#63b8ff" d="M110.78,-9.5C102.08,-9.5 93.42,-9.5 85.35,-9.5"/>
<polygon fill="#63b8ff" stroke="#63b8ff" points="110.97,-13 120.97,-9.5 110.97,-6 110.97,-13"/>
</a>
</g>
</g>
</g>
</svg>
