<?xml version="1.0" encoding="UTF-8" standalone="no"?>
<!DOCTYPE svg PUBLIC "-//W3C//DTD SVG 1.1//EN"
 "http://www.w3.org/Graphics/SVG/1.1/DTD/svg11.dtd">
<!-- Generated by graphviz version 2.43.0 (0)
 -->
<!-- Title: time/time.c Pages: 1 -->
<svg width="600pt" height="252pt"
 viewBox="0.00 0.00 600.00 252.00" xmlns="http://www.w3.org/2000/svg" xmlns:xlink="http://www.w3.org/1999/xlink">
<g id="graph0" class="graph" transform="scale(1 1) rotate(0) translate(4 248)">
<title>time/time.c</title>
<!-- Node1 -->
<g id="node1" class="node">
<title>Node1</title>
<g id="a_node1"><a xlink:title="Time related function implementations.">
<polygon fill="#bfbfbf" stroke="black" points="304,-224.5 304,-243.5 377,-243.5 377,-224.5 304,-224.5"/>
<text text-anchor="middle" x="340.5" y="-231.5" font-family="Helvetica,sans-Serif" font-size="10.00">time/time.c</text>
</a>
</g>
</g>
<!-- Node2 -->
<g id="node2" class="node">
<title>Node2</title>
<g id="a_node2"><a xlink:title=" ">
<polygon fill="none" stroke="#bfbfbf" points="0,-168.5 0,-187.5 63,-187.5 63,-168.5 0,-168.5"/>
<text text-anchor="middle" x="31.5" y="-175.5" font-family="Helvetica,sans-Serif" font-size="10.00">ds/sllist.h</text>
</a>
</g>
</g>
<!-- Node1&#45;&gt;Node2 -->
<g id="edge1" class="edge">
<title>Node1&#45;&gt;Node2</title>
<path fill="none" stroke="midnightblue" d="M303.84,-227.53C253.83,-219.92 161.21,-205.31 73.22,-188.26"/>
<polygon fill="midnightblue" stroke="midnightblue" points="73.83,-184.81 63.34,-186.33 72.49,-191.68 73.83,-184.81"/>
</g>
<!-- Node3 -->
<g id="node3" class="node">
<title>Node3</title>
<g id="a_node3"><a xlink:title=" ">
<polygon fill="none" stroke="#bfbfbf" points="81,-168.5 81,-187.5 164,-187.5 164,-168.5 81,-168.5"/>
<text text-anchor="middle" x="122.5" y="-175.5" font-family="Helvetica,sans-Serif" font-size="10.00">ucdm/ucdm.h</text>
</a>
</g>
</g>
<!-- Node1&#45;&gt;Node3 -->
<g id="edge2" class="edge">
<title>Node1&#45;&gt;Node3</title>
<path fill="none" stroke="midnightblue" d="M305.96,-224.44C268.25,-215.1 207.76,-200.12 166.64,-189.93"/>
<polygon fill="midnightblue" stroke="midnightblue" points="167.43,-186.52 156.88,-187.52 165.75,-193.32 167.43,-186.52"/>
</g>
<!-- Node4 -->
<g id="node4" class="node">
<title>Node4</title>
<g id="a_node4"><a xlink:title=" ">
<polygon fill="none" stroke="#bfbfbf" points="182.5,-168.5 182.5,-187.5 286.5,-187.5 286.5,-168.5 182.5,-168.5"/>
<text text-anchor="middle" x="234.5" y="-175.5" font-family="Helvetica,sans-Serif" font-size="10.00">ucdm/descriptor.h</text>
</a>
</g>
</g>
<!-- Node1&#45;&gt;Node4 -->
<g id="edge3" class="edge">
<title>Node1&#45;&gt;Node4</title>
<path fill="none" stroke="midnightblue" d="M323.47,-224.32C306.47,-215.66 280.12,-202.24 260.51,-192.25"/>
<polygon fill="midnightblue" stroke="midnightblue" points="261.99,-189.08 251.49,-187.65 258.81,-195.31 261.99,-189.08"/>
</g>
<!-- Node5 -->
<g id="node5" class="node">
<title>Node5</title>
<g id="a_node5"><a xlink:title=" ">
<polygon fill="none" stroke="#bfbfbf" points="289,-56.5 289,-75.5 342,-75.5 342,-56.5 289,-56.5"/>
<text text-anchor="middle" x="315.5" y="-63.5" font-family="Helvetica,sans-Serif" font-size="10.00">string.h</text>
</a>
</g>
</g>
<!-- Node1&#45;&gt;Node5 -->
<g id="edge4" class="edge">
<title>Node1&#45;&gt;Node5</title>
<path fill="none" stroke="midnightblue" d="M339.14,-224.38C337.72,-215.32 335.43,-200.66 333.5,-188 327.98,-151.73 321.72,-109.32 318.22,-85.56"/>
<polygon fill="midnightblue" stroke="midnightblue" points="321.66,-84.9 316.75,-75.51 314.74,-85.91 321.66,-84.9"/>
</g>
<!-- Node6 -->
<g id="node6" class="node">
<title>Node6</title>
<g id="a_node6"><a xlink:href="time_8h.html" target="_top" xlink:title="Time related functions for embebedded systems.">
<polygon fill="none" stroke="black" points="453.5,-112.5 453.5,-131.5 501.5,-131.5 501.5,-112.5 453.5,-112.5"/>
<text text-anchor="middle" x="477.5" y="-119.5" font-family="Helvetica,sans-Serif" font-size="10.00">time.h</text>
</a>
</g>
</g>
<!-- Node1&#45;&gt;Node6 -->
<g id="edge5" class="edge">
<title>Node1&#45;&gt;Node6</title>
<path fill="none" stroke="midnightblue" d="M377.02,-232.19C409.32,-229.3 454.74,-219.43 477.5,-188 487.11,-174.73 485.82,-155.6 482.9,-141.53"/>
<polygon fill="midnightblue" stroke="midnightblue" points="486.22,-140.39 480.39,-131.54 479.43,-142.09 486.22,-140.39"/>
</g>
<!-- Node11 -->
<g id="node11" class="node">
<title>Node11</title>
<g id="a_node11"><a xlink:href="systick_8h_source.html" target="_top" xlink:title=" ">
<polygon fill="none" stroke="black" points="408.5,-168.5 408.5,-187.5 468.5,-187.5 468.5,-168.5 408.5,-168.5"/>
<text text-anchor="middle" x="438.5" y="-175.5" font-family="Helvetica,sans-Serif" font-size="10.00">systick.h</text>
</a>
</g>
</g>
<!-- Node1&#45;&gt;Node11 -->
<g id="edge11" class="edge">
<title>Node1&#45;&gt;Node11</title>
<path fill="none" stroke="midnightblue" d="M356.25,-224.32C371.82,-215.74 395.88,-202.49 413.96,-192.52"/>
<polygon fill="midnightblue" stroke="midnightblue" points="415.72,-195.55 422.79,-187.65 412.35,-189.42 415.72,-195.55"/>
</g>
<!-- Node12 -->
<g id="node12" class="node">
<title>Node12</title>
<g id="a_node12"><a xlink:href="sync_8h.html" target="_top" xlink:title="Time synchonization functions for embebedded systems.">
<polygon fill="none" stroke="black" points="342.5,-168.5 342.5,-187.5 390.5,-187.5 390.5,-168.5 342.5,-168.5"/>
<text text-anchor="middle" x="366.5" y="-175.5" font-family="Helvetica,sans-Serif" font-size="10.00">sync.h</text>
</a>
</g>
</g>
<!-- Node1&#45;&gt;Node12 -->
<g id="edge12" class="edge">
<title>Node1&#45;&gt;Node12</title>
<path fill="none" stroke="midnightblue" d="M344.79,-224.08C348.35,-216.69 353.52,-205.95 357.92,-196.81"/>
<polygon fill="midnightblue" stroke="midnightblue" points="361.1,-198.28 362.29,-187.75 354.79,-195.24 361.1,-198.28"/>
</g>
<!-- Node14 -->
<g id="node14" class="node">
<title>Node14</title>
<g id="a_node14"><a xlink:href="cron_8h.html" target="_top" xlink:title="Cron&#45;like scheduling framework for embebedded systems.">
<polygon fill="none" stroke="black" points="525,-168.5 525,-187.5 572,-187.5 572,-168.5 525,-168.5"/>
<text text-anchor="middle" x="548.5" y="-175.5" font-family="Helvetica,sans-Serif" font-size="10.00">cron.h</text>
</a>
</g>
</g>
<!-- Node1&#45;&gt;Node14 -->
<g id="edge15" class="edge">
<title>Node1&#45;&gt;Node14</title>
<path fill="none" stroke="midnightblue" d="M373.46,-224.44C412.16,-214.4 475.99,-197.83 514.94,-187.71"/>
<polygon fill="midnightblue" stroke="midnightblue" points="515.95,-191.07 524.75,-185.16 514.2,-184.29 515.95,-191.07"/>
</g>
<!-- Node6&#45;&gt;Node5 -->
<g id="edge7" class="edge">
<title>Node6&#45;&gt;Node5</title>
<path fill="none" stroke="midnightblue" d="M453.25,-112.92C426.09,-103.86 381.82,-89.11 350.82,-78.77"/>
<polygon fill="midnightblue" stroke="midnightblue" points="351.85,-75.43 341.26,-75.59 349.64,-82.07 351.85,-75.43"/>
</g>
<!-- Node7 -->
<g id="node7" class="node">
<title>Node7</title>
<g id="a_node7"><a xlink:title=" ">
<polygon fill="none" stroke="#bfbfbf" points="539,-56.5 539,-75.5 592,-75.5 592,-56.5 539,-56.5"/>
<text text-anchor="middle" x="565.5" y="-63.5" font-family="Helvetica,sans-Serif" font-size="10.00">stdint.h</text>
</a>
</g>
</g>
<!-- Node6&#45;&gt;Node7 -->
<g id="edge6" class="edge">
<title>Node6&#45;&gt;Node7</title>
<path fill="none" stroke="midnightblue" d="M491.64,-112.32C505.37,-103.9 526.44,-90.97 542.56,-81.07"/>
<polygon fill="midnightblue" stroke="midnightblue" points="544.7,-83.87 551.4,-75.65 541.04,-77.9 544.7,-83.87"/>
</g>
<!-- Node8 -->
<g id="node8" class="node">
<title>Node8</title>
<g id="a_node8"><a xlink:href="config_8h_source.html" target="_top" xlink:title=" ">
<polygon fill="none" stroke="black" points="360,-56.5 360,-75.5 415,-75.5 415,-56.5 360,-56.5"/>
<text text-anchor="middle" x="387.5" y="-63.5" font-family="Helvetica,sans-Serif" font-size="10.00">config.h</text>
</a>
</g>
</g>
<!-- Node6&#45;&gt;Node8 -->
<g id="edge8" class="edge">
<title>Node6&#45;&gt;Node8</title>
<path fill="none" stroke="midnightblue" d="M463.04,-112.32C449,-103.9 427.45,-90.97 410.96,-81.07"/>
<polygon fill="midnightblue" stroke="midnightblue" points="412.3,-77.8 401.92,-75.65 408.7,-83.8 412.3,-77.8"/>
</g>
<!-- Node10 -->
<g id="node10" class="node">
<title>Node10</title>
<g id="a_node10"><a xlink:title=" ">
<polygon fill="none" stroke="#bfbfbf" points="433.5,-56.5 433.5,-75.5 521.5,-75.5 521.5,-56.5 433.5,-56.5"/>
<text text-anchor="middle" x="477.5" y="-63.5" font-family="Helvetica,sans-Serif" font-size="10.00">platform/cpu.h</text>
</a>
</g>
</g>
<!-- Node6&#45;&gt;Node10 -->
<g id="edge10" class="edge">
<title>Node6&#45;&gt;Node10</title>
<path fill="none" stroke="midnightblue" d="M477.5,-112.08C477.5,-105.01 477.5,-94.86 477.5,-85.99"/>
<polygon fill="midnightblue" stroke="midnightblue" points="481,-85.75 477.5,-75.75 474,-85.75 481,-85.75"/>
</g>
<!-- Node9 -->
<g id="node9" class="node">
<title>Node9</title>
<g id="a_node9"><a xlink:title=" ">
<polygon fill="none" stroke="#bfbfbf" points="347.5,-0.5 347.5,-19.5 427.5,-19.5 427.5,-0.5 347.5,-0.5"/>
<text text-anchor="middle" x="387.5" y="-7.5" font-family="Helvetica,sans-Serif" font-size="10.00">application.h</text>
</a>
</g>
</g>
<!-- Node8&#45;&gt;Node9 -->
<g id="edge9" class="edge">
<title>Node8&#45;&gt;Node9</title>
<path fill="none" stroke="midnightblue" d="M387.5,-56.08C387.5,-49.01 387.5,-38.86 387.5,-29.99"/>
<polygon fill="midnightblue" stroke="midnightblue" points="391,-29.75 387.5,-19.75 384,-29.75 391,-29.75"/>
</g>
<!-- Node12&#45;&gt;Node6 -->
<g id="edge14" class="edge">
<title>Node12&#45;&gt;Node6</title>
<path fill="none" stroke="midnightblue" d="M384.33,-168.32C402.22,-159.62 429.98,-146.12 450.55,-136.11"/>
<polygon fill="midnightblue" stroke="midnightblue" points="452.25,-139.18 459.71,-131.65 449.19,-132.88 452.25,-139.18"/>
</g>
<!-- Node13 -->
<g id="node13" class="node">
<title>Node13</title>
<g id="a_node13"><a xlink:title=" ">
<polygon fill="none" stroke="#bfbfbf" points="342.5,-112.5 342.5,-131.5 416.5,-131.5 416.5,-112.5 342.5,-112.5"/>
<text text-anchor="middle" x="379.5" y="-119.5" font-family="Helvetica,sans-Serif" font-size="10.00">ds/avltree.h</text>
</a>
</g>
</g>
<!-- Node12&#45;&gt;Node13 -->
<g id="edge13" class="edge">
<title>Node12&#45;&gt;Node13</title>
<path fill="none" stroke="midnightblue" d="M368.65,-168.08C370.37,-160.93 372.85,-150.64 375,-141.69"/>
<polygon fill="midnightblue" stroke="midnightblue" points="378.46,-142.29 377.39,-131.75 371.65,-140.65 378.46,-142.29"/>
</g>
<!-- Node14&#45;&gt;Node6 -->
<g id="edge17" class="edge">
<title>Node14&#45;&gt;Node6</title>
<path fill="none" stroke="midnightblue" d="M537.09,-168.32C526.39,-160.18 510.16,-147.84 497.34,-138.09"/>
<polygon fill="midnightblue" stroke="midnightblue" points="499.19,-135.1 489.11,-131.83 494.96,-140.67 499.19,-135.1"/>
</g>
<!-- Node15 -->
<g id="node15" class="node">
<title>Node15</title>
<g id="a_node15"><a xlink:title=" ">
<polygon fill="none" stroke="#bfbfbf" points="520.5,-112.5 520.5,-131.5 576.5,-131.5 576.5,-112.5 520.5,-112.5"/>
<text text-anchor="middle" x="548.5" y="-119.5" font-family="Helvetica,sans-Serif" font-size="10.00">stddef.h</text>
</a>
</g>
</g>
<!-- Node14&#45;&gt;Node15 -->
<g id="edge16" class="edge">
<title>Node14&#45;&gt;Node15</title>
<path fill="none" stroke="midnightblue" d="M548.5,-168.08C548.5,-161.01 548.5,-150.86 548.5,-141.99"/>
<polygon fill="midnightblue" stroke="midnightblue" points="552,-141.75 548.5,-131.75 545,-141.75 552,-141.75"/>
</g>
</g>
</svg>
