<?xml version="1.0" encoding="UTF-8" standalone="no"?>
<!DOCTYPE svg PUBLIC "-//W3C//DTD SVG 1.1//EN"
 "http://www.w3.org/Graphics/SVG/1.1/DTD/svg11.dtd">
<!-- Generated by graphviz version 2.43.0 (0)
 -->
<!-- Title: tm_cmp_stime Pages: 1 -->
<svg width="530pt" height="120pt"
 viewBox="0.00 0.00 530.00 120.00" xmlns="http://www.w3.org/2000/svg" xmlns:xlink="http://www.w3.org/1999/xlink">
<g id="graph0" class="graph" transform="scale(1 1) rotate(0) translate(4 116)">
<title>tm_cmp_stime</title>
<!-- Node1 -->
<g id="Node000001" class="node">
<title>Node1</title>
<g id="a_Node000001"><a xlink:title=" ">
<polygon fill="#999999" stroke="#666666" points="522,-19 433,-19 433,0 522,0 522,-19"/>
<text text-anchor="middle" x="477.5" y="-7" font-family="Helvetica,sans-Serif" font-size="10.00">tm_cmp_stime</text>
</a>
</g>
</g>
<!-- Node2 -->
<g id="Node000002" class="node">
<title>Node2</title>
<g id="a_Node000002"><a xlink:href="cron_8c.html#abf90aa38172b4830afeb0a113be640eb" target="_top" xlink:title=" ">
<polygon fill="white" stroke="#666666" points="397,-56 287,-56 287,-37 397,-37 397,-56"/>
<text text-anchor="middle" x="342" y="-44" font-family="Helvetica,sans-Serif" font-size="10.00">tm_cron_insert_job</text>
</a>
</g>
</g>
<!-- Node1&#45;&gt;Node2 -->
<g id="edge1_Node000001_Node000002" class="edge">
<title>Node1&#45;&gt;Node2</title>
<g id="a_edge1_Node000001_Node000002"><a xlink:title=" ">
<path fill="none" stroke="#63b8ff" d="M432.03,-21.83C414.34,-26.73 394.31,-32.28 377.73,-36.88"/>
<polygon fill="#63b8ff" stroke="#63b8ff" points="433.42,-25.07 442.12,-19.03 431.55,-18.33 433.42,-25.07"/>
</a>
</g>
</g>
<!-- Node6 -->
<g id="Node000006" class="node">
<title>Node6</title>
<g id="a_Node000006"><a xlink:href="cron_8c.html#aba0331747ce8989a513b91f8f7b5fc0e" target="_top" xlink:title=" ">
<polygon fill="white" stroke="#666666" points="80,-19 0,-19 0,0 80,0 80,-19"/>
<text text-anchor="middle" x="40" y="-7" font-family="Helvetica,sans-Serif" font-size="10.00">tm_cron_poll</text>
</a>
</g>
</g>
<!-- Node1&#45;&gt;Node6 -->
<g id="edge6_Node000001_Node000006" class="edge">
<title>Node1&#45;&gt;Node6</title>
<g id="a_edge6_Node000001_Node000006"><a xlink:title=" ">
<path fill="none" stroke="#63b8ff" d="M422.61,-9.5C333.73,-9.5 158.49,-9.5 80.29,-9.5"/>
<polygon fill="#63b8ff" stroke="#63b8ff" points="422.75,-13 432.75,-9.5 422.75,-6 422.75,-13"/>
</a>
</g>
</g>
<!-- Node3 -->
<g id="Node000003" class="node">
<title>Node3</title>
<g id="a_Node000003"><a xlink:href="cron_8c.html#a9ae8afbebc0998d4fa6bb927b7348634" target="_top" xlink:title=" ">
<polygon fill="white" stroke="#666666" points="251,-112 116,-112 116,-93 251,-93 251,-112"/>
<text text-anchor="middle" x="183.5" y="-100" font-family="Helvetica,sans-Serif" font-size="10.00">tm_cron_create_job_abs</text>
</a>
</g>
</g>
<!-- Node2&#45;&gt;Node3 -->
<g id="edge2_Node000002_Node000003" class="edge">
<title>Node2&#45;&gt;Node3</title>
<g id="a_edge2_Node000002_Node000003"><a xlink:title=" ">
<path fill="none" stroke="#63b8ff" d="M311.01,-60.36C293.7,-68.06 271.37,-77.48 251,-84.5 242.18,-87.54 232.56,-90.4 223.45,-92.9"/>
<polygon fill="#63b8ff" stroke="#63b8ff" points="312.89,-63.36 320.58,-56.06 310.02,-56.97 312.89,-63.36"/>
</a>
</g>
</g>
<!-- Node4 -->
<g id="Node000004" class="node">
<title>Node4</title>
<g id="a_Node000004"><a xlink:href="cron_8c.html#a5c2e85fb4b19fa8d232072c56f5636ed" target="_top" xlink:title=" ">
<polygon fill="white" stroke="#666666" points="249,-75 118,-75 118,-56 249,-56 249,-75"/>
<text text-anchor="middle" x="183.5" y="-63" font-family="Helvetica,sans-Serif" font-size="10.00">tm_cron_create_job_rel</text>
</a>
</g>
</g>
<!-- Node2&#45;&gt;Node4 -->
<g id="edge3_Node000002_Node000004" class="edge">
<title>Node2&#45;&gt;Node4</title>
<g id="a_edge3_Node000002_Node000004"><a xlink:title=" ">
<path fill="none" stroke="#63b8ff" d="M276.62,-54.32C267.57,-55.42 258.26,-56.55 249.2,-57.64"/>
<polygon fill="#63b8ff" stroke="#63b8ff" points="277.2,-57.77 286.7,-53.09 276.35,-50.82 277.2,-57.77"/>
</a>
</g>
</g>
<!-- Node5 -->
<g id="Node000005" class="node">
<title>Node5</title>
<g id="a_Node000005"><a xlink:href="cron_8h.html#aa4dc612a9a51f266f2344d02ab4a4da8" target="_top" xlink:title=" ">
<polygon fill="white" stroke="#666666" points="242.5,-38 124.5,-38 124.5,-19 242.5,-19 242.5,-38"/>
<text text-anchor="middle" x="183.5" y="-26" font-family="Helvetica,sans-Serif" font-size="10.00">tm_cron_replace_job</text>
</a>
</g>
</g>
<!-- Node2&#45;&gt;Node5 -->
<g id="edge4_Node000002_Node000005" class="edge">
<title>Node2&#45;&gt;Node5</title>
<g id="a_edge4_Node000002_Node000005"><a xlink:title=" ">
<path fill="none" stroke="#63b8ff" d="M276.54,-39.09C265.33,-37.8 253.73,-36.46 242.7,-35.19"/>
<polygon fill="#63b8ff" stroke="#63b8ff" points="276.37,-42.59 286.7,-40.25 277.17,-35.64 276.37,-42.59"/>
</a>
</g>
</g>
<!-- Node5&#45;&gt;Node6 -->
<g id="edge5_Node000005_Node000006" class="edge">
<title>Node5&#45;&gt;Node6</title>
<g id="a_edge5_Node000005_Node000006"><a xlink:title=" ">
<path fill="none" stroke="#63b8ff" d="M114.01,-19.3C102.43,-17.75 90.77,-16.18 80.28,-14.77"/>
<polygon fill="#63b8ff" stroke="#63b8ff" points="113.75,-22.8 124.13,-20.66 114.68,-15.86 113.75,-22.8"/>
</a>
</g>
</g>
</g>
</svg>
