<?xml version="1.0" encoding="UTF-8" standalone="no"?>
<!DOCTYPE svg PUBLIC "-//W3C//DTD SVG 1.1//EN"
 "http://www.w3.org/Graphics/SVG/1.1/DTD/svg11.dtd">
<!-- Generated by graphviz version 2.43.0 (0)
 -->
<!-- Title: tm_apply_sdelta Pages: 1 -->
<svg width="273pt" height="187pt"
 viewBox="0.00 0.00 273.00 187.00" xmlns="http://www.w3.org/2000/svg" xmlns:xlink="http://www.w3.org/1999/xlink">
<g id="graph0" class="graph" transform="scale(1 1) rotate(0) translate(4 183)">
<title>tm_apply_sdelta</title>
<!-- Node1 -->
<g id="Node000001" class="node">
<title>Node1</title>
<g id="a_Node000001"><a xlink:title="Apply a time difference to a time in system time.">
<polygon fill="#999999" stroke="#666666" points="265,-99 167,-99 167,-80 265,-80 265,-99"/>
<text text-anchor="middle" x="216" y="-87" font-family="Helvetica,sans-Serif" font-size="10.00">tm_apply_sdelta</text>
</a>
</g>
</g>
<!-- Node2 -->
<g id="Node000002" class="node">
<title>Node2</title>
<g id="a_Node000002"><a xlink:href="time_8h.html#a362eb0d02aef96bd2f20903c31c69364" target="_top" xlink:title="Apply a real time difference to a time in systick units.">
<polygon fill="white" stroke="#666666" points="113.5,-179 17.5,-179 17.5,-160 113.5,-160 113.5,-179"/>
<text text-anchor="middle" x="65.5" y="-167" font-family="Helvetica,sans-Serif" font-size="10.00">tm_apply_rdelta</text>
</a>
</g>
</g>
<!-- Node1&#45;&gt;Node2 -->
<g id="edge1_Node000001_Node000002" class="edge">
<title>Node1&#45;&gt;Node2</title>
<g id="a_edge1_Node000001_Node000002"><a xlink:title=" ">
<path fill="none" stroke="#63b8ff" d="M197.07,-105.78C180.87,-119.71 155.83,-139.38 131,-151.5 124.21,-154.81 116.71,-157.61 109.3,-159.93"/>
<polygon fill="#63b8ff" stroke="#63b8ff" points="199.48,-108.32 204.69,-99.09 194.86,-103.06 199.48,-108.32"/>
</a>
</g>
</g>
<!-- Node3 -->
<g id="Node000003" class="node">
<title>Node3</title>
<g id="a_Node000003"><a xlink:href="cron_8c.html#a5c2e85fb4b19fa8d232072c56f5636ed" target="_top" xlink:title=" ">
<polygon fill="white" stroke="#666666" points="131,-142 0,-142 0,-123 131,-123 131,-142"/>
<text text-anchor="middle" x="65.5" y="-130" font-family="Helvetica,sans-Serif" font-size="10.00">tm_cron_create_job_rel</text>
</a>
</g>
</g>
<!-- Node1&#45;&gt;Node3 -->
<g id="edge2_Node000001_Node000003" class="edge">
<title>Node1&#45;&gt;Node3</title>
<g id="a_edge2_Node000001_Node000003"><a xlink:title=" ">
<path fill="none" stroke="#63b8ff" d="M172.43,-101.83C149.2,-108.55 120.88,-116.75 99.36,-122.98"/>
<polygon fill="#63b8ff" stroke="#63b8ff" points="173.41,-105.19 182.04,-99.04 171.46,-98.46 173.41,-105.19"/>
</a>
</g>
</g>
<!-- Node4 -->
<g id="Node000004" class="node">
<title>Node4</title>
<g id="a_Node000004"><a xlink:href="cron_8c.html#a06c6fee9a7455d6bb00266a0d3da9906" target="_top" xlink:title=" ">
<polygon fill="white" stroke="#666666" points="131,-104.5 0,-104.5 0,-74.5 131,-74.5 131,-104.5"/>
<text text-anchor="start" x="8" y="-92.5" font-family="Helvetica,sans-Serif" font-size="10.00">tm_cron_epoch_change</text>
<text text-anchor="middle" x="65.5" y="-81.5" font-family="Helvetica,sans-Serif" font-size="10.00">_handler</text>
</a>
</g>
</g>
<!-- Node1&#45;&gt;Node4 -->
<g id="edge3_Node000001_Node000004" class="edge">
<title>Node1&#45;&gt;Node4</title>
<g id="a_edge3_Node000001_Node000004"><a xlink:title=" ">
<path fill="none" stroke="#63b8ff" d="M156.74,-89.5C148.37,-89.5 139.71,-89.5 131.22,-89.5"/>
<polygon fill="#63b8ff" stroke="#63b8ff" points="156.79,-93 166.79,-89.5 156.79,-86 156.79,-93"/>
</a>
</g>
</g>
<!-- Node5 -->
<g id="Node000005" class="node">
<title>Node5</title>
<g id="a_Node000005"><a xlink:href="cron_8c.html#aba0331747ce8989a513b91f8f7b5fc0e" target="_top" xlink:title=" ">
<polygon fill="white" stroke="#666666" points="105.5,-56 25.5,-56 25.5,-37 105.5,-37 105.5,-56"/>
<text text-anchor="middle" x="65.5" y="-44" font-family="Helvetica,sans-Serif" font-size="10.00">tm_cron_poll</text>
</a>
</g>
</g>
<!-- Node1&#45;&gt;Node5 -->
<g id="edge4_Node000001_Node000005" class="edge">
<title>Node1&#45;&gt;Node5</title>
<g id="a_edge4_Node000001_Node000005"><a xlink:title=" ">
<path fill="none" stroke="#63b8ff" d="M172.43,-77.17C149.2,-70.45 120.88,-62.25 99.36,-56.02"/>
<polygon fill="#63b8ff" stroke="#63b8ff" points="171.46,-80.54 182.04,-79.96 173.41,-73.81 171.46,-80.54"/>
</a>
</g>
</g>
<!-- Node6 -->
<g id="Node000006" class="node">
<title>Node6</title>
<g id="a_Node000006"><a xlink:href="time_8c.html#a6a189a7f4cdf84e3f061bb309203fb50" target="_top" xlink:title="Set the epoch time from an external real time source.">
<polygon fill="white" stroke="#666666" points="108,-19 23,-19 23,0 108,0 108,-19"/>
<text text-anchor="middle" x="65.5" y="-7" font-family="Helvetica,sans-Serif" font-size="10.00">tm_set_epoch</text>
</a>
</g>
</g>
<!-- Node1&#45;&gt;Node6 -->
<g id="edge5_Node000001_Node000006" class="edge">
<title>Node1&#45;&gt;Node6</title>
<g id="a_edge5_Node000001_Node000006"><a xlink:title=" ">
<path fill="none" stroke="#63b8ff" d="M196.71,-73.35C180.45,-59.73 155.51,-40.56 131,-28.5 123.46,-24.79 115.06,-21.66 106.88,-19.09"/>
<polygon fill="#63b8ff" stroke="#63b8ff" points="194.5,-76.07 204.37,-79.91 199.05,-70.75 194.5,-76.07"/>
</a>
</g>
</g>
</g>
</svg>
