<?xml version="1.0" encoding="UTF-8" standalone="no"?>
<!DOCTYPE svg PUBLIC "-//W3C//DTD SVG 1.1//EN"
 "http://www.w3.org/Graphics/SVG/1.1/DTD/svg11.dtd">
<!-- Generated by graphviz version 2.43.0 (0)
 -->
<!-- Title: tm_apply_rdelta Pages: 1 -->
<svg width="268pt" height="64pt"
 viewBox="0.00 0.00 268.00 64.00" xmlns="http://www.w3.org/2000/svg" xmlns:xlink="http://www.w3.org/1999/xlink">
<g id="graph0" class="graph" transform="scale(1 1) rotate(0) translate(4 60)">
<title>tm_apply_rdelta</title>
<!-- Node1 -->
<g id="Node000001" class="node">
<title>Node1</title>
<g id="a_Node000001"><a xlink:title="Apply a real time difference to a time in systick units.">
<polygon fill="#999999" stroke="#666666" points="96,-37 0,-37 0,-18 96,-18 96,-37"/>
<text text-anchor="middle" x="48" y="-25" font-family="Helvetica,sans-Serif" font-size="10.00">tm_apply_rdelta</text>
</a>
</g>
</g>
<!-- Node2 -->
<g id="Node000002" class="node">
<title>Node2</title>
<g id="a_Node000002"><a xlink:href="time_8h.html#a020bc3b6a0701a332d55523b44d837ae" target="_top" xlink:title="Apply a time difference to a time in system time.">
<polygon fill="white" stroke="#666666" points="245,-56 147,-56 147,-37 245,-37 245,-56"/>
<text text-anchor="middle" x="196" y="-44" font-family="Helvetica,sans-Serif" font-size="10.00">tm_apply_sdelta</text>
</a>
</g>
</g>
<!-- Node1&#45;&gt;Node2 -->
<g id="edge1_Node000001_Node000002" class="edge">
<title>Node1&#45;&gt;Node2</title>
<g id="a_edge1_Node000001_Node000002"><a xlink:title=" ">
<path fill="none" stroke="#63b8ff" d="M96.4,-33.67C109.27,-35.34 123.36,-37.18 136.76,-38.92"/>
<polygon fill="#63b8ff" stroke="#63b8ff" points="136.47,-42.41 146.84,-40.23 137.37,-35.47 136.47,-42.41"/>
</a>
</g>
</g>
<!-- Node3 -->
<g id="Node000003" class="node">
<title>Node3</title>
<g id="a_Node000003"><a xlink:href="time_8c.html#a36fe5f19a48263d62cb825079260f00b" target="_top" xlink:title="Convert a tm_rdelta_t instance into systick units.">
<polygon fill="white" stroke="#666666" points="260,-19 132,-19 132,0 260,0 260,-19"/>
<text text-anchor="middle" x="196" y="-7" font-family="Helvetica,sans-Serif" font-size="10.00">tm_sdelta_from_rdelta</text>
</a>
</g>
</g>
<!-- Node1&#45;&gt;Node3 -->
<g id="edge2_Node000001_Node000003" class="edge">
<title>Node1&#45;&gt;Node3</title>
<g id="a_edge2_Node000001_Node000003"><a xlink:title=" ">
<path fill="none" stroke="#63b8ff" d="M96.4,-21.66C104.54,-20.65 113.17,-19.59 121.8,-18.53"/>
<polygon fill="#63b8ff" stroke="#63b8ff" points="122.4,-21.98 131.9,-17.28 121.54,-15.03 122.4,-21.98"/>
</a>
</g>
</g>
</g>
</svg>
