<?xml version="1.0" encoding="UTF-8" standalone="no"?>
<!DOCTYPE svg PUBLIC "-//W3C//DTD SVG 1.1//EN"
 "http://www.w3.org/Graphics/SVG/1.1/DTD/svg11.dtd">
<!-- Generated by graphviz version 2.43.0 (0)
 -->
<!-- Title: time/time.h Pages: 1 -->
<svg width="394pt" height="140pt"
 viewBox="0.00 0.00 393.50 140.00" xmlns="http://www.w3.org/2000/svg" xmlns:xlink="http://www.w3.org/1999/xlink">
<g id="graph0" class="graph" transform="scale(1 1) rotate(0) translate(4 136)">
<title>time/time.h</title>
<!-- Node1 -->
<g id="node1" class="node">
<title>Node1</title>
<g id="a_node1"><a xlink:title="Time related functions for embebedded systems.">
<polygon fill="#bfbfbf" stroke="black" points="128,-112.5 128,-131.5 202,-131.5 202,-112.5 128,-112.5"/>
<text text-anchor="middle" x="165" y="-119.5" font-family="Helvetica,sans-Serif" font-size="10.00">time/time.h</text>
</a>
</g>
</g>
<!-- Node2 -->
<g id="node2" class="node">
<title>Node2</title>
<g id="a_node2"><a xlink:href="cron_8h.html" target="_top" xlink:title="Cron&#45;like scheduling framework for embebedded systems.">
<polygon fill="none" stroke="black" points="0,-56.5 0,-75.5 72,-75.5 72,-56.5 0,-56.5"/>
<text text-anchor="middle" x="36" y="-63.5" font-family="Helvetica,sans-Serif" font-size="10.00">time/cron.h</text>
</a>
</g>
</g>
<!-- Node1&#45;&gt;Node2 -->
<g id="edge1" class="edge">
<title>Node1&#45;&gt;Node2</title>
<path fill="none" stroke="midnightblue" d="M135.15,-108.5C110.96,-98.38 77.54,-84.39 56.34,-75.52"/>
<polygon fill="midnightblue" stroke="midnightblue" points="133.98,-111.81 144.56,-112.44 136.69,-105.35 133.98,-111.81"/>
</g>
<!-- Node4 -->
<g id="node4" class="node">
<title>Node4</title>
<g id="a_node4"><a xlink:href="sync_8c.html" target="_top" xlink:title="Time synchonization function implementations.">
<polygon fill="none" stroke="black" points="91.5,-0.5 91.5,-19.5 164.5,-19.5 164.5,-0.5 91.5,-0.5"/>
<text text-anchor="middle" x="128" y="-7.5" font-family="Helvetica,sans-Serif" font-size="10.00">time/sync.c</text>
</a>
</g>
</g>
<!-- Node1&#45;&gt;Node4 -->
<g id="edge3" class="edge">
<title>Node1&#45;&gt;Node4</title>
<path fill="none" stroke="midnightblue" d="M143.29,-106.07C133.94,-98.31 124.03,-87.95 119,-76 111.05,-57.1 118.73,-32.64 123.99,-19.79"/>
<polygon fill="midnightblue" stroke="midnightblue" points="141.16,-108.85 151.21,-112.19 145.44,-103.31 141.16,-108.85"/>
</g>
<!-- Node5 -->
<g id="node5" class="node">
<title>Node5</title>
<g id="a_node5"><a xlink:href="sync_8h.html" target="_top" xlink:title="Time synchonization functions for embebedded systems.">
<polygon fill="none" stroke="black" points="128,-56.5 128,-75.5 202,-75.5 202,-56.5 128,-56.5"/>
<text text-anchor="middle" x="165" y="-63.5" font-family="Helvetica,sans-Serif" font-size="10.00">time/sync.h</text>
</a>
</g>
</g>
<!-- Node1&#45;&gt;Node5 -->
<g id="edge4" class="edge">
<title>Node1&#45;&gt;Node5</title>
<path fill="none" stroke="midnightblue" d="M165,-101.8C165,-92.91 165,-82.78 165,-75.75"/>
<polygon fill="midnightblue" stroke="midnightblue" points="161.5,-102.08 165,-112.08 168.5,-102.08 161.5,-102.08"/>
</g>
<!-- Node6 -->
<g id="node6" class="node">
<title>Node6</title>
<g id="a_node6"><a xlink:href="time_8c.html" target="_top" xlink:title="Time related function implementations.">
<polygon fill="none" stroke="black" points="186.5,-0.5 186.5,-19.5 259.5,-19.5 259.5,-0.5 186.5,-0.5"/>
<text text-anchor="middle" x="223" y="-7.5" font-family="Helvetica,sans-Serif" font-size="10.00">time/time.c</text>
</a>
</g>
</g>
<!-- Node1&#45;&gt;Node6 -->
<g id="edge9" class="edge">
<title>Node1&#45;&gt;Node6</title>
<path fill="none" stroke="midnightblue" d="M185.31,-105.99C194.56,-98.09 204.81,-87.63 211,-76 220.82,-57.57 222.74,-32.49 223.03,-19.53"/>
<polygon fill="midnightblue" stroke="midnightblue" points="182.83,-103.5 177.24,-112.49 187.22,-108.95 182.83,-103.5"/>
</g>
<!-- Node7 -->
<g id="node7" class="node">
<title>Node7</title>
<g id="a_node7"><a xlink:href="systick__handler_8h.html" target="_top" xlink:title="Interrupt handler for the system tick for static inclusion in the application.">
<polygon fill="none" stroke="black" points="258.5,-56.5 258.5,-75.5 385.5,-75.5 385.5,-56.5 258.5,-56.5"/>
<text text-anchor="middle" x="322" y="-63.5" font-family="Helvetica,sans-Serif" font-size="10.00">time/systick_handler.h</text>
</a>
</g>
</g>
<!-- Node1&#45;&gt;Node7 -->
<g id="edge7" class="edge">
<title>Node1&#45;&gt;Node7</title>
<path fill="none" stroke="midnightblue" d="M199.39,-109.17C228.95,-99 270.87,-84.59 297.24,-75.52"/>
<polygon fill="midnightblue" stroke="midnightblue" points="198.2,-105.88 189.88,-112.44 200.47,-112.5 198.2,-105.88"/>
</g>
<!-- Node3 -->
<g id="node3" class="node">
<title>Node3</title>
<g id="a_node3"><a xlink:href="cron_8c.html" target="_top" xlink:title="Cron&#45;like scheduling framework implementations.">
<polygon fill="none" stroke="black" points="0.5,-0.5 0.5,-19.5 71.5,-19.5 71.5,-0.5 0.5,-0.5"/>
<text text-anchor="middle" x="36" y="-7.5" font-family="Helvetica,sans-Serif" font-size="10.00">time/cron.c</text>
</a>
</g>
</g>
<!-- Node2&#45;&gt;Node3 -->
<g id="edge2" class="edge">
<title>Node2&#45;&gt;Node3</title>
<path fill="none" stroke="midnightblue" d="M36,-45.8C36,-36.91 36,-26.78 36,-19.75"/>
<polygon fill="midnightblue" stroke="midnightblue" points="32.5,-46.08 36,-56.08 39.5,-46.08 32.5,-46.08"/>
</g>
<!-- Node5&#45;&gt;Node4 -->
<g id="edge5" class="edge">
<title>Node5&#45;&gt;Node4</title>
<path fill="none" stroke="midnightblue" d="M153.05,-47.57C146.69,-38.27 139.13,-27.25 134,-19.75"/>
<polygon fill="midnightblue" stroke="midnightblue" points="150.35,-49.81 158.89,-56.08 156.13,-45.86 150.35,-49.81"/>
</g>
<!-- Node5&#45;&gt;Node6 -->
<g id="edge6" class="edge">
<title>Node5&#45;&gt;Node6</title>
<path fill="none" stroke="midnightblue" d="M181.91,-49.25C192.2,-39.67 204.97,-27.79 213.51,-19.83"/>
<polygon fill="midnightblue" stroke="midnightblue" points="179.25,-46.95 174.32,-56.32 184.02,-52.07 179.25,-46.95"/>
</g>
<!-- Node8 -->
<g id="node8" class="node">
<title>Node8</title>
<g id="a_node8"><a xlink:href="systick_8c_source.html" target="_top" xlink:title=" ">
<polygon fill="none" stroke="black" points="279.5,-0.5 279.5,-19.5 364.5,-19.5 364.5,-0.5 279.5,-0.5"/>
<text text-anchor="middle" x="322" y="-7.5" font-family="Helvetica,sans-Serif" font-size="10.00">time/systick.c</text>
</a>
</g>
</g>
<!-- Node7&#45;&gt;Node8 -->
<g id="edge8" class="edge">
<title>Node7&#45;&gt;Node8</title>
<path fill="none" stroke="midnightblue" d="M322,-45.8C322,-36.91 322,-26.78 322,-19.75"/>
<polygon fill="midnightblue" stroke="midnightblue" points="318.5,-46.08 322,-56.08 325.5,-46.08 318.5,-46.08"/>
</g>
</g>
</svg>
