<?xml version="1.0" encoding="UTF-8" standalone="no"?>
<!DOCTYPE svg PUBLIC "-//W3C//DTD SVG 1.1//EN"
 "http://www.w3.org/Graphics/SVG/1.1/DTD/svg11.dtd">
<!-- Generated by graphviz version 2.43.0 (0)
 -->
<!-- Title: time/time.c Pages: 1 -->
<svg width="608pt" height="247pt"
 viewBox="0.00 0.00 608.00 247.00" xmlns="http://www.w3.org/2000/svg" xmlns:xlink="http://www.w3.org/1999/xlink">
<g id="graph0" class="graph" transform="scale(1 1) rotate(0) translate(4 243)">
<title>time/time.c</title>
<!-- Node1 -->
<g id="Node000001" class="node">
<title>Node1</title>
<g id="a_Node000001"><a xlink:title="Time related function implementations.">
<polygon fill="#999999" stroke="#666666" points="338,-239 265,-239 265,-220 338,-220 338,-239"/>
<text text-anchor="middle" x="301.5" y="-227" font-family="Helvetica,sans-Serif" font-size="10.00">time/time.c</text>
</a>
</g>
</g>
<!-- Node2 -->
<g id="Node000002" class="node">
<title>Node2</title>
<g id="a_Node000002"><a xlink:title=" ">
<polygon fill="#e0e0e0" stroke="#999999" points="63,-184 0,-184 0,-165 63,-165 63,-184"/>
<text text-anchor="middle" x="31.5" y="-172" font-family="Helvetica,sans-Serif" font-size="10.00">ds/sllist.h</text>
</a>
</g>
</g>
<!-- Node1&#45;&gt;Node2 -->
<g id="edge1_Node000001_Node000002" class="edge">
<title>Node1&#45;&gt;Node2</title>
<g id="a_edge1_Node000001_Node000002"><a xlink:title=" ">
<path fill="none" stroke="#63b8ff" d="M264.98,-221.55C221.71,-213.28 147.16,-198.94 73.23,-184.13"/>
<polygon fill="#63b8ff" stroke="#63b8ff" points="73.77,-180.66 63.28,-182.13 72.39,-187.53 73.77,-180.66"/>
</a>
</g>
</g>
<!-- Node3 -->
<g id="Node000003" class="node">
<title>Node3</title>
<g id="a_Node000003"><a xlink:title=" ">
<polygon fill="#e0e0e0" stroke="#999999" points="185.5,-184 81.5,-184 81.5,-165 185.5,-165 185.5,-184"/>
<text text-anchor="middle" x="133.5" y="-172" font-family="Helvetica,sans-Serif" font-size="10.00">ucdm/descriptor.h</text>
</a>
</g>
</g>
<!-- Node1&#45;&gt;Node3 -->
<g id="edge2_Node000001_Node000003" class="edge">
<title>Node1&#45;&gt;Node3</title>
<g id="a_edge2_Node000001_Node000003"><a xlink:title=" ">
<path fill="none" stroke="#63b8ff" d="M274.51,-219.98C246.3,-211.09 201.86,-197.07 170.42,-187.15"/>
<polygon fill="#63b8ff" stroke="#63b8ff" points="171.29,-183.75 160.7,-184.08 169.19,-190.43 171.29,-183.75"/>
</a>
</g>
</g>
<!-- Node4 -->
<g id="Node000004" class="node">
<title>Node4</title>
<g id="a_Node000004"><a xlink:title=" ">
<polygon fill="#e0e0e0" stroke="#999999" points="241,-74 188,-74 188,-55 241,-55 241,-74"/>
<text text-anchor="middle" x="214.5" y="-62" font-family="Helvetica,sans-Serif" font-size="10.00">string.h</text>
</a>
</g>
</g>
<!-- Node1&#45;&gt;Node4 -->
<g id="edge3_Node000001_Node000004" class="edge">
<title>Node1&#45;&gt;Node4</title>
<g id="a_edge3_Node000001_Node000004"><a xlink:title=" ">
<path fill="none" stroke="#63b8ff" d="M279.18,-220C263.52,-212.83 243.5,-200.99 232.5,-184 212.69,-153.38 211.57,-109.15 212.83,-84.3"/>
<polygon fill="#63b8ff" stroke="#63b8ff" points="216.34,-84.29 213.54,-74.07 209.35,-83.81 216.34,-84.29"/>
</a>
</g>
</g>
<!-- Node5 -->
<g id="Node000005" class="node">
<title>Node5</title>
<g id="a_Node000005"><a xlink:href="time_8h.html" target="_top" xlink:title="Time related functions for embebedded systems.">
<polygon fill="white" stroke="#666666" points="400.5,-129 352.5,-129 352.5,-110 400.5,-110 400.5,-129"/>
<text text-anchor="middle" x="376.5" y="-117" font-family="Helvetica,sans-Serif" font-size="10.00">time.h</text>
</a>
</g>
</g>
<!-- Node1&#45;&gt;Node5 -->
<g id="edge4_Node000001_Node000005" class="edge">
<title>Node1&#45;&gt;Node5</title>
<g id="a_edge4_Node000001_Node000005"><a xlink:title=" ">
<path fill="none" stroke="#63b8ff" d="M329.15,-219.98C346.08,-213.17 366.39,-201.76 376.5,-184 384.17,-170.53 383.41,-152.7 381.17,-139.36"/>
<polygon fill="#63b8ff" stroke="#63b8ff" points="384.57,-138.48 379.1,-129.41 377.71,-139.91 384.57,-138.48"/>
</a>
</g>
</g>
<!-- Node11 -->
<g id="Node000011" class="node">
<title>Node11</title>
<g id="a_Node000011"><a xlink:href="systick_8h.html" target="_top" xlink:title=" ">
<polygon fill="white" stroke="#666666" points="367.5,-184 307.5,-184 307.5,-165 367.5,-165 367.5,-184"/>
<text text-anchor="middle" x="337.5" y="-172" font-family="Helvetica,sans-Serif" font-size="10.00">systick.h</text>
</a>
</g>
</g>
<!-- Node1&#45;&gt;Node11 -->
<g id="edge11_Node000001_Node000011" class="edge">
<title>Node1&#45;&gt;Node11</title>
<g id="a_edge11_Node000001_Node000011"><a xlink:title=" ">
<path fill="none" stroke="#63b8ff" d="M307.44,-219.75C312.48,-212.34 319.84,-201.5 326.01,-192.41"/>
<polygon fill="#63b8ff" stroke="#63b8ff" points="328.94,-194.33 331.67,-184.09 323.15,-190.39 328.94,-194.33"/>
</a>
</g>
</g>
<!-- Node12 -->
<g id="Node000012" class="node">
<title>Node12</title>
<g id="a_Node000012"><a xlink:href="sync_8h.html" target="_top" xlink:title="Time synchonization functions for embebedded systems.">
<polygon fill="white" stroke="#666666" points="289.5,-184 241.5,-184 241.5,-165 289.5,-165 289.5,-184"/>
<text text-anchor="middle" x="265.5" y="-172" font-family="Helvetica,sans-Serif" font-size="10.00">sync.h</text>
</a>
</g>
</g>
<!-- Node1&#45;&gt;Node12 -->
<g id="edge12_Node000001_Node000012" class="edge">
<title>Node1&#45;&gt;Node12</title>
<g id="a_edge12_Node000001_Node000012"><a xlink:title=" ">
<path fill="none" stroke="#63b8ff" d="M295.56,-219.75C290.52,-212.34 283.16,-201.5 276.99,-192.41"/>
<polygon fill="#63b8ff" stroke="#63b8ff" points="279.85,-190.39 271.33,-184.09 274.06,-194.33 279.85,-190.39"/>
</a>
</g>
</g>
<!-- Node14 -->
<g id="Node000014" class="node">
<title>Node14</title>
<g id="a_Node000014"><a xlink:href="cron_8h.html" target="_top" xlink:title="Cron&#45;like scheduling framework for embebedded systems.">
<polygon fill="white" stroke="#666666" points="471,-184 424,-184 424,-165 471,-165 471,-184"/>
<text text-anchor="middle" x="447.5" y="-172" font-family="Helvetica,sans-Serif" font-size="10.00">cron.h</text>
</a>
</g>
</g>
<!-- Node1&#45;&gt;Node14 -->
<g id="edge15_Node000001_Node000014" class="edge">
<title>Node1&#45;&gt;Node14</title>
<g id="a_edge15_Node000001_Node000014"><a xlink:title=" ">
<path fill="none" stroke="#63b8ff" d="M324.96,-219.98C349.08,-211.23 386.87,-197.51 414.1,-187.62"/>
<polygon fill="#63b8ff" stroke="#63b8ff" points="415.41,-190.87 423.62,-184.17 413.02,-184.29 415.41,-190.87"/>
</a>
</g>
</g>
<!-- Node16 -->
<g id="Node000016" class="node">
<title>Node16</title>
<g id="a_Node000016"><a xlink:title=" ">
<polygon fill="#e0e0e0" stroke="#999999" points="600,-184 489,-184 489,-165 600,-165 600,-184"/>
<text text-anchor="middle" x="544.5" y="-172" font-family="Helvetica,sans-Serif" font-size="10.00">platform/sections.h</text>
</a>
</g>
</g>
<!-- Node1&#45;&gt;Node16 -->
<g id="edge18_Node000001_Node000016" class="edge">
<title>Node1&#45;&gt;Node16</title>
<g id="a_edge18_Node000001_Node000016"><a xlink:title=" ">
<path fill="none" stroke="#63b8ff" d="M338.14,-220.51C380.02,-211.37 448.75,-196.38 495.27,-186.24"/>
<polygon fill="#63b8ff" stroke="#63b8ff" points="496.11,-189.64 505.14,-184.09 494.62,-182.8 496.11,-189.64"/>
</a>
</g>
</g>
<!-- Node5&#45;&gt;Node4 -->
<g id="edge6_Node000005_Node000004" class="edge">
<title>Node5&#45;&gt;Node4</title>
<g id="a_edge6_Node000005_Node000004"><a xlink:title=" ">
<path fill="none" stroke="#63b8ff" d="M352.25,-110.57C325.17,-101.71 281.08,-87.28 250.09,-77.14"/>
<polygon fill="#63b8ff" stroke="#63b8ff" points="251.12,-73.8 240.53,-74.02 248.95,-80.45 251.12,-73.8"/>
</a>
</g>
</g>
<!-- Node6 -->
<g id="Node000006" class="node">
<title>Node6</title>
<g id="a_Node000006"><a xlink:title=" ">
<polygon fill="#e0e0e0" stroke="#999999" points="593,-74 540,-74 540,-55 593,-55 593,-74"/>
<text text-anchor="middle" x="566.5" y="-62" font-family="Helvetica,sans-Serif" font-size="10.00">stdint.h</text>
</a>
</g>
</g>
<!-- Node5&#45;&gt;Node6 -->
<g id="edge5_Node000005_Node000006" class="edge">
<title>Node5&#45;&gt;Node6</title>
<g id="a_edge5_Node000005_Node000006"><a xlink:title=" ">
<path fill="none" stroke="#63b8ff" d="M400.56,-111.79C433.29,-102.66 492.1,-86.25 530.2,-75.63"/>
<polygon fill="#63b8ff" stroke="#63b8ff" points="531.19,-78.98 539.89,-72.92 529.31,-72.24 531.19,-78.98"/>
</a>
</g>
</g>
<!-- Node7 -->
<g id="Node000007" class="node">
<title>Node7</title>
<g id="a_Node000007"><a xlink:href="config_8h.html" target="_top" xlink:title=" ">
<polygon fill="white" stroke="#666666" points="314,-74 259,-74 259,-55 314,-55 314,-74"/>
<text text-anchor="middle" x="286.5" y="-62" font-family="Helvetica,sans-Serif" font-size="10.00">config.h</text>
</a>
</g>
</g>
<!-- Node5&#45;&gt;Node7 -->
<g id="edge7_Node000005_Node000007" class="edge">
<title>Node5&#45;&gt;Node7</title>
<g id="a_edge7_Node000005_Node000007"><a xlink:title=" ">
<path fill="none" stroke="#63b8ff" d="M362.04,-109.98C348.08,-101.77 326.71,-89.18 310.25,-79.49"/>
<polygon fill="#63b8ff" stroke="#63b8ff" points="311.62,-76.23 301.22,-74.17 308.06,-82.26 311.62,-76.23"/>
</a>
</g>
</g>
<!-- Node9 -->
<g id="Node000009" class="node">
<title>Node9</title>
<g id="a_Node000009"><a xlink:title=" ">
<polygon fill="#e0e0e0" stroke="#999999" points="420.5,-74 332.5,-74 332.5,-55 420.5,-55 420.5,-74"/>
<text text-anchor="middle" x="376.5" y="-62" font-family="Helvetica,sans-Serif" font-size="10.00">platform/cpu.h</text>
</a>
</g>
</g>
<!-- Node5&#45;&gt;Node9 -->
<g id="edge9_Node000005_Node000009" class="edge">
<title>Node5&#45;&gt;Node9</title>
<g id="a_edge9_Node000005_Node000009"><a xlink:title=" ">
<path fill="none" stroke="#63b8ff" d="M376.5,-109.75C376.5,-102.8 376.5,-92.85 376.5,-84.13"/>
<polygon fill="#63b8ff" stroke="#63b8ff" points="380,-84.09 376.5,-74.09 373,-84.09 380,-84.09"/>
</a>
</g>
</g>
<!-- Node10 -->
<g id="Node000010" class="node">
<title>Node10</title>
<g id="a_Node000010"><a xlink:title=" ">
<polygon fill="#e0e0e0" stroke="#999999" points="522,-74 439,-74 439,-55 522,-55 522,-74"/>
<text text-anchor="middle" x="480.5" y="-62" font-family="Helvetica,sans-Serif" font-size="10.00">ucdm/ucdm.h</text>
</a>
</g>
</g>
<!-- Node5&#45;&gt;Node10 -->
<g id="edge10_Node000005_Node000010" class="edge">
<title>Node5&#45;&gt;Node10</title>
<g id="a_edge10_Node000005_Node000010"><a xlink:title=" ">
<path fill="none" stroke="#63b8ff" d="M393.21,-109.98C409.71,-101.57 435.2,-88.59 454.38,-78.81"/>
<polygon fill="#63b8ff" stroke="#63b8ff" points="456.17,-81.83 463.49,-74.17 452.99,-75.59 456.17,-81.83"/>
</a>
</g>
</g>
<!-- Node8 -->
<g id="Node000008" class="node">
<title>Node8</title>
<g id="a_Node000008"><a xlink:title=" ">
<polygon fill="#e0e0e0" stroke="#999999" points="326.5,-19 246.5,-19 246.5,0 326.5,0 326.5,-19"/>
<text text-anchor="middle" x="286.5" y="-7" font-family="Helvetica,sans-Serif" font-size="10.00">application.h</text>
</a>
</g>
</g>
<!-- Node7&#45;&gt;Node8 -->
<g id="edge8_Node000007_Node000008" class="edge">
<title>Node7&#45;&gt;Node8</title>
<g id="a_edge8_Node000007_Node000008"><a xlink:title=" ">
<path fill="none" stroke="#63b8ff" d="M286.5,-54.75C286.5,-47.8 286.5,-37.85 286.5,-29.13"/>
<polygon fill="#63b8ff" stroke="#63b8ff" points="290,-29.09 286.5,-19.09 283,-29.09 290,-29.09"/>
</a>
</g>
</g>
<!-- Node12&#45;&gt;Node5 -->
<g id="edge14_Node000012_Node000005" class="edge">
<title>Node12&#45;&gt;Node5</title>
<g id="a_edge14_Node000012_Node000005"><a xlink:title=" ">
<path fill="none" stroke="#63b8ff" d="M283.33,-164.98C301.11,-156.5 328.65,-143.35 349.18,-133.54"/>
<polygon fill="#63b8ff" stroke="#63b8ff" points="350.83,-136.64 358.34,-129.17 347.81,-130.32 350.83,-136.64"/>
</a>
</g>
</g>
<!-- Node13 -->
<g id="Node000013" class="node">
<title>Node13</title>
<g id="a_Node000013"><a xlink:title=" ">
<polygon fill="#e0e0e0" stroke="#999999" points="315.5,-129 241.5,-129 241.5,-110 315.5,-110 315.5,-129"/>
<text text-anchor="middle" x="278.5" y="-117" font-family="Helvetica,sans-Serif" font-size="10.00">ds/avltree.h</text>
</a>
</g>
</g>
<!-- Node12&#45;&gt;Node13 -->
<g id="edge13_Node000012_Node000013" class="edge">
<title>Node12&#45;&gt;Node13</title>
<g id="a_edge13_Node000012_Node000013"><a xlink:title=" ">
<path fill="none" stroke="#63b8ff" d="M267.65,-164.75C269.37,-157.72 271.85,-147.62 274,-138.84"/>
<polygon fill="#63b8ff" stroke="#63b8ff" points="277.41,-139.63 276.39,-129.09 270.61,-137.97 277.41,-139.63"/>
</a>
</g>
</g>
<!-- Node14&#45;&gt;Node5 -->
<g id="edge17_Node000014_Node000005" class="edge">
<title>Node14&#45;&gt;Node5</title>
<g id="a_edge17_Node000014_Node000005"><a xlink:title=" ">
<path fill="none" stroke="#63b8ff" d="M436.09,-164.98C425.39,-157 409.16,-144.88 396.34,-135.31"/>
<polygon fill="#63b8ff" stroke="#63b8ff" points="398.22,-132.35 388.11,-129.17 394.03,-137.96 398.22,-132.35"/>
</a>
</g>
</g>
<!-- Node15 -->
<g id="Node000015" class="node">
<title>Node15</title>
<g id="a_Node000015"><a xlink:title=" ">
<polygon fill="#e0e0e0" stroke="#999999" points="475.5,-129 419.5,-129 419.5,-110 475.5,-110 475.5,-129"/>
<text text-anchor="middle" x="447.5" y="-117" font-family="Helvetica,sans-Serif" font-size="10.00">stddef.h</text>
</a>
</g>
</g>
<!-- Node14&#45;&gt;Node15 -->
<g id="edge16_Node000014_Node000015" class="edge">
<title>Node14&#45;&gt;Node15</title>
<g id="a_edge16_Node000014_Node000015"><a xlink:title=" ">
<path fill="none" stroke="#63b8ff" d="M447.5,-164.75C447.5,-157.8 447.5,-147.85 447.5,-139.13"/>
<polygon fill="#63b8ff" stroke="#63b8ff" points="451,-139.09 447.5,-129.09 444,-139.09 451,-139.09"/>
</a>
</g>
</g>
</g>
</svg>
