<?xml version="1.0" encoding="UTF-8" standalone="no"?>
<!DOCTYPE svg PUBLIC "-//W3C//DTD SVG 1.1//EN"
 "http://www.w3.org/Graphics/SVG/1.1/DTD/svg11.dtd">
<!-- Generated by graphviz version 2.43.0 (0)
 -->
<!-- Title: time/time.h Pages: 1 -->
<svg width="488pt" height="140pt"
 viewBox="0.00 0.00 488.00 140.00" xmlns="http://www.w3.org/2000/svg" xmlns:xlink="http://www.w3.org/1999/xlink">
<g id="graph0" class="graph" transform="scale(1 1) rotate(0) translate(4 136)">
<title>time/time.h</title>
<!-- Node1 -->
<g id="node1" class="node">
<title>Node1</title>
<g id="a_node1"><a xlink:title="Time related functions for embebedded systems.">
<polygon fill="#bfbfbf" stroke="black" points="194.5,-112.5 194.5,-131.5 268.5,-131.5 268.5,-112.5 194.5,-112.5"/>
<text text-anchor="middle" x="231.5" y="-119.5" font-family="Helvetica,sans-Serif" font-size="10.00">time/time.h</text>
</a>
</g>
</g>
<!-- Node2 -->
<g id="node2" class="node">
<title>Node2</title>
<g id="a_node2"><a xlink:href="cron_8h.html" target="_top" xlink:title="Cron&#45;like scheduling framework for embebedded systems.">
<polygon fill="none" stroke="black" points="66.5,-56.5 66.5,-75.5 138.5,-75.5 138.5,-56.5 66.5,-56.5"/>
<text text-anchor="middle" x="102.5" y="-63.5" font-family="Helvetica,sans-Serif" font-size="10.00">time/cron.h</text>
</a>
</g>
</g>
<!-- Node1&#45;&gt;Node2 -->
<g id="edge1" class="edge">
<title>Node1&#45;&gt;Node2</title>
<path fill="none" stroke="midnightblue" d="M201.65,-108.5C177.46,-98.38 144.04,-84.39 122.84,-75.52"/>
<polygon fill="midnightblue" stroke="midnightblue" points="200.48,-111.81 211.06,-112.44 203.19,-105.35 200.48,-111.81"/>
</g>
<!-- Node4 -->
<g id="node4" class="node">
<title>Node4</title>
<g id="a_node4"><a xlink:href="time_8c.html" target="_top" xlink:title="Time related function implementations.">
<polygon fill="none" stroke="black" points="89,-0.5 89,-19.5 162,-19.5 162,-0.5 89,-0.5"/>
<text text-anchor="middle" x="125.5" y="-7.5" font-family="Helvetica,sans-Serif" font-size="10.00">time/time.c</text>
</a>
</g>
</g>
<!-- Node1&#45;&gt;Node4 -->
<g id="edge11" class="edge">
<title>Node1&#45;&gt;Node4</title>
<path fill="none" stroke="midnightblue" d="M214.8,-105.06C205.98,-96.54 195.04,-85.82 185.5,-76 166.24,-56.17 144.4,-32.09 133.13,-19.54"/>
<polygon fill="midnightblue" stroke="midnightblue" points="212.56,-107.77 222.2,-112.17 217.41,-102.72 212.56,-107.77"/>
</g>
<!-- Node5 -->
<g id="node5" class="node">
<title>Node5</title>
<g id="a_node5"><a xlink:href="sync_8c.html" target="_top" xlink:title="Time synchonization function implementation.">
<polygon fill="none" stroke="black" points="289,-0.5 289,-19.5 362,-19.5 362,-0.5 289,-0.5"/>
<text text-anchor="middle" x="325.5" y="-7.5" font-family="Helvetica,sans-Serif" font-size="10.00">time/sync.c</text>
</a>
</g>
</g>
<!-- Node1&#45;&gt;Node5 -->
<g id="edge4" class="edge">
<title>Node1&#45;&gt;Node5</title>
<path fill="none" stroke="midnightblue" d="M248.65,-105.47C257.6,-97.07 268.51,-86.32 277.5,-76 294.08,-56.95 311.07,-32.56 319.7,-19.75"/>
<polygon fill="midnightblue" stroke="midnightblue" points="246.07,-103.09 241.1,-112.45 250.82,-108.23 246.07,-103.09"/>
</g>
<!-- Node6 -->
<g id="node6" class="node">
<title>Node6</title>
<g id="a_node6"><a xlink:href="sync_8h.html" target="_top" xlink:title="Time synchonization functions for embebedded systems.">
<polygon fill="none" stroke="black" points="194.5,-56.5 194.5,-75.5 268.5,-75.5 268.5,-56.5 194.5,-56.5"/>
<text text-anchor="middle" x="231.5" y="-63.5" font-family="Helvetica,sans-Serif" font-size="10.00">time/sync.h</text>
</a>
</g>
</g>
<!-- Node1&#45;&gt;Node6 -->
<g id="edge5" class="edge">
<title>Node1&#45;&gt;Node6</title>
<path fill="none" stroke="midnightblue" d="M231.5,-101.8C231.5,-92.91 231.5,-82.78 231.5,-75.75"/>
<polygon fill="midnightblue" stroke="midnightblue" points="228,-102.08 231.5,-112.08 235,-102.08 228,-102.08"/>
</g>
<!-- Node8 -->
<g id="node8" class="node">
<title>Node8</title>
<g id="a_node8"><a xlink:href="systick__handler_8h.html" target="_top" xlink:title="Interrupt handler for the system tick for static inclusion in the application.">
<polygon fill="none" stroke="black" points="353,-56.5 353,-75.5 480,-75.5 480,-56.5 353,-56.5"/>
<text text-anchor="middle" x="416.5" y="-63.5" font-family="Helvetica,sans-Serif" font-size="10.00">time/systick_handler.h</text>
</a>
</g>
</g>
<!-- Node1&#45;&gt;Node8 -->
<g id="edge9" class="edge">
<title>Node1&#45;&gt;Node8</title>
<path fill="none" stroke="midnightblue" d="M270.67,-109.57C305.57,-99.38 355.85,-84.7 387.32,-75.52"/>
<polygon fill="midnightblue" stroke="midnightblue" points="269.43,-106.28 260.81,-112.44 271.39,-113 269.43,-106.28"/>
</g>
<!-- Node3 -->
<g id="node3" class="node">
<title>Node3</title>
<g id="a_node3"><a xlink:href="cron_8c.html" target="_top" xlink:title="Cron&#45;like scheduling framework implementations.">
<polygon fill="none" stroke="black" points="0,-0.5 0,-19.5 71,-19.5 71,-0.5 0,-0.5"/>
<text text-anchor="middle" x="35.5" y="-7.5" font-family="Helvetica,sans-Serif" font-size="10.00">time/cron.c</text>
</a>
</g>
</g>
<!-- Node2&#45;&gt;Node3 -->
<g id="edge2" class="edge">
<title>Node2&#45;&gt;Node3</title>
<path fill="none" stroke="midnightblue" d="M83.67,-49.82C71.66,-40.15 56.53,-27.95 46.46,-19.83"/>
<polygon fill="midnightblue" stroke="midnightblue" points="81.75,-52.77 91.74,-56.32 86.15,-47.32 81.75,-52.77"/>
</g>
<!-- Node2&#45;&gt;Node4 -->
<g id="edge3" class="edge">
<title>Node2&#45;&gt;Node4</title>
<path fill="none" stroke="midnightblue" d="M110.3,-46.69C114.18,-37.59 118.68,-27.01 121.77,-19.75"/>
<polygon fill="midnightblue" stroke="midnightblue" points="107,-45.51 106.3,-56.08 113.44,-48.25 107,-45.51"/>
</g>
<!-- Node6&#45;&gt;Node4 -->
<g id="edge8" class="edge">
<title>Node6&#45;&gt;Node4</title>
<path fill="none" stroke="midnightblue" d="M205.44,-51.73C185.82,-41.73 159.47,-28.31 142.49,-19.65"/>
<polygon fill="midnightblue" stroke="midnightblue" points="203.97,-54.9 214.47,-56.32 207.15,-48.67 203.97,-54.9"/>
</g>
<!-- Node6&#45;&gt;Node5 -->
<g id="edge6" class="edge">
<title>Node6&#45;&gt;Node5</title>
<path fill="none" stroke="midnightblue" d="M255.56,-51.18C272.86,-41.24 295.65,-28.15 310.43,-19.65"/>
<polygon fill="midnightblue" stroke="midnightblue" points="253.53,-48.31 246.6,-56.32 257.02,-54.38 253.53,-48.31"/>
</g>
<!-- Node7 -->
<g id="node7" class="node">
<title>Node7</title>
<g id="a_node7"><a xlink:href="sync__rtc_8c_source.html" target="_top" xlink:title=" ">
<polygon fill="none" stroke="black" points="180,-0.5 180,-19.5 271,-19.5 271,-0.5 180,-0.5"/>
<text text-anchor="middle" x="225.5" y="-7.5" font-family="Helvetica,sans-Serif" font-size="10.00">time/sync_rtc.c</text>
</a>
</g>
</g>
<!-- Node6&#45;&gt;Node7 -->
<g id="edge7" class="edge">
<title>Node6&#45;&gt;Node7</title>
<path fill="none" stroke="midnightblue" d="M229.4,-46.1C228.4,-37.14 227.26,-26.86 226.47,-19.75"/>
<polygon fill="midnightblue" stroke="midnightblue" points="225.93,-46.53 230.51,-56.08 232.88,-45.76 225.93,-46.53"/>
</g>
<!-- Node9 -->
<g id="node9" class="node">
<title>Node9</title>
<g id="a_node9"><a xlink:href="systick_8c_source.html" target="_top" xlink:title=" ">
<polygon fill="none" stroke="black" points="380,-0.5 380,-19.5 465,-19.5 465,-0.5 380,-0.5"/>
<text text-anchor="middle" x="422.5" y="-7.5" font-family="Helvetica,sans-Serif" font-size="10.00">time/systick.c</text>
</a>
</g>
</g>
<!-- Node8&#45;&gt;Node9 -->
<g id="edge10" class="edge">
<title>Node8&#45;&gt;Node9</title>
<path fill="none" stroke="midnightblue" d="M418.6,-46.1C419.6,-37.14 420.74,-26.86 421.53,-19.75"/>
<polygon fill="midnightblue" stroke="midnightblue" points="415.12,-45.76 417.49,-56.08 422.07,-46.53 415.12,-45.76"/>
</g>
</g>
</svg>
