<?xml version="1.0" encoding="UTF-8" standalone="no"?>
<!DOCTYPE svg PUBLIC "-//W3C//DTD SVG 1.1//EN"
 "http://www.w3.org/Graphics/SVG/1.1/DTD/svg11.dtd">
<!-- Generated by graphviz version 2.43.0 (0)
 -->
<!-- Title: tm_current_time Pages: 1 -->
<svg width="273pt" height="64pt"
 viewBox="0.00 0.00 273.00 64.00" xmlns="http://www.w3.org/2000/svg" xmlns:xlink="http://www.w3.org/1999/xlink">
<g id="graph0" class="graph" transform="scale(1 1) rotate(0) translate(4 60)">
<title>tm_current_time</title>
<!-- Node1 -->
<g id="Node000001" class="node">
<title>Node1</title>
<g id="a_Node000001"><a xlink:title="Get the current system time.">
<polygon fill="#999999" stroke="#666666" points="265,-37 167,-37 167,-18 265,-18 265,-37"/>
<text text-anchor="middle" x="216" y="-25" font-family="Helvetica,sans-Serif" font-size="10.00">tm_current_time</text>
</a>
</g>
</g>
<!-- Node2 -->
<g id="Node000002" class="node">
<title>Node2</title>
<g id="a_Node000002"><a xlink:href="cron_8c.html#a5c2e85fb4b19fa8d232072c56f5636ed" target="_top" xlink:title=" ">
<polygon fill="white" stroke="#666666" points="131,-56 0,-56 0,-37 131,-37 131,-56"/>
<text text-anchor="middle" x="65.5" y="-44" font-family="Helvetica,sans-Serif" font-size="10.00">tm_cron_create_job_rel</text>
</a>
</g>
</g>
<!-- Node1&#45;&gt;Node2 -->
<g id="edge1_Node000001_Node000002" class="edge">
<title>Node1&#45;&gt;Node2</title>
<g id="a_edge1_Node000001_Node000002"><a xlink:title=" ">
<path fill="none" stroke="#63b8ff" d="M156.74,-34.95C148.37,-36.03 139.71,-37.13 131.22,-38.22"/>
<polygon fill="#63b8ff" stroke="#63b8ff" points="157.31,-38.41 166.79,-33.67 156.42,-31.47 157.31,-38.41"/>
</a>
</g>
</g>
<!-- Node3 -->
<g id="Node000003" class="node">
<title>Node3</title>
<g id="a_Node000003"><a xlink:href="cron_8c.html#aba0331747ce8989a513b91f8f7b5fc0e" target="_top" xlink:title=" ">
<polygon fill="white" stroke="#666666" points="105.5,-19 25.5,-19 25.5,0 105.5,0 105.5,-19"/>
<text text-anchor="middle" x="65.5" y="-7" font-family="Helvetica,sans-Serif" font-size="10.00">tm_cron_poll</text>
</a>
</g>
</g>
<!-- Node1&#45;&gt;Node3 -->
<g id="edge2_Node000001_Node000003" class="edge">
<title>Node1&#45;&gt;Node3</title>
<g id="a_edge2_Node000001_Node000003"><a xlink:title=" ">
<path fill="none" stroke="#63b8ff" d="M156.83,-20.45C139.64,-18.37 121.24,-16.14 105.56,-14.23"/>
<polygon fill="#63b8ff" stroke="#63b8ff" points="156.44,-23.93 166.79,-21.66 157.28,-16.98 156.44,-23.93"/>
</a>
</g>
</g>
</g>
</svg>
